<svg width="25" height="26" viewBox="0 0 25 26" fill="none" xmlns="http://www.w3.org/2000/svg">
<path d="M18.2129 20.4051L13.2942 17.6805C15.1223 16.2422 15.6188 13.4156 15.6188 11.8308V8.53201C15.6188 6.34763 12.7164 3.91482 9.8012 3.91482C6.88674 3.91482 3.90745 6.34802 3.90745 8.53201V11.8308C3.90745 13.2718 4.51719 16.1871 6.36409 17.668L1.31836 20.4051C1.31836 20.4051 0 20.9926 0 21.725V23.7047C0 24.4332 0.591382 25.0246 1.31836 25.0246H18.2129C18.9406 25.0246 19.532 24.4332 19.532 23.7047V21.725C19.532 20.9485 18.2129 20.4051 18.2129 20.4051ZM17.9696 23.4621H1.56255V22.0653C1.67466 21.9837 1.8313 21.8891 1.95474 21.8325C1.99143 21.8157 2.02815 21.7981 2.06292 21.7782L7.10901 19.0415C7.56917 18.7918 7.87424 18.329 7.92073 17.8079C7.96721 17.2868 7.74963 16.7762 7.34182 16.4489C6.03167 15.3985 5.47034 13.0719 5.47034 11.8309V8.53208C5.47034 7.40981 7.58596 5.47739 9.80159 5.47739C12.0582 5.47739 14.0567 7.38328 14.0567 8.53208V11.8309C14.0567 13.0547 13.6766 15.3915 12.3285 16.452C12.1253 16.612 11.965 16.8199 11.8618 17.057C11.7585 17.2942 11.7157 17.5532 11.7371 17.811C11.7589 18.0686 11.8441 18.3168 11.9852 18.5334C12.1263 18.7501 12.3189 18.9284 12.5457 19.0524L17.4645 21.777C17.5079 21.8008 17.5629 21.8266 17.6086 21.8466C17.7239 21.8954 17.8657 21.977 17.9696 22.0489V23.4621ZM23.6809 16.5149L18.6891 13.7903C20.5172 12.352 21.0871 9.52541 21.0871 7.94062V4.6418C21.0871 2.45742 18.1117 0 15.1965 0C13.302 0 11.3649 1.03008 10.2375 2.34924C10.8805 2.38906 11.5895 2.38987 12.202 2.58518C13.025 1.94416 14.0665 1.56291 15.1965 1.56291C17.4531 1.56291 19.5246 3.49297 19.5246 4.64221V7.94104C19.5246 9.16484 19.0715 11.5016 17.7235 12.5621C17.5203 12.7221 17.3599 12.93 17.2567 13.1672C17.1535 13.4043 17.1107 13.6634 17.1321 13.9211C17.1538 14.1787 17.2391 14.4269 17.3802 14.6436C17.5213 14.8602 17.7138 15.0385 17.9406 15.1625L22.9325 17.8871C22.9758 17.911 23.0309 17.9367 23.0766 17.9567C23.1918 18.0055 23.3336 18.0871 23.4375 18.159V19.5485H20.2836C20.7598 19.9078 20.9039 20.4219 21.0887 21.111H23.6813C24.409 21.111 25.0004 20.5196 25.0004 19.791V17.8355C25 17.0582 23.6809 16.5149 23.6809 16.5149Z" fill="#6BB8E8"/>
</svg>
