<svg width="26" height="25" viewBox="0 0 26 25" fill="none" xmlns="http://www.w3.org/2000/svg">
<path fill-rule="evenodd" clip-rule="evenodd" d="M1.36522 20.0694C0.859842 19.9919 0.415302 19.6991 0.144168 19.2652L0.0348149 19.0901L0.00965159 10.7857C-0.00418832 6.21831 -0.0030004 2.48133 0.0122915 2.48133C0.0275834 2.48133 0.08036 2.37995 0.129573 2.25604C0.178786 2.13213 0.251201 2.00659 0.290495 1.97707C0.32979 1.94754 0.36194 1.90539 0.36194 1.88339C0.36194 1.82976 0.550949 1.66114 0.611073 1.66114C0.637378 1.66114 0.67701 1.6344 0.699146 1.6017C0.721281 1.56901 0.86395 1.49212 1.01619 1.43083C1.28281 1.3235 1.34062 1.31888 2.58891 1.30521L3.88482 1.29102L3.88687 1.55582C3.88799 1.70146 3.88862 2.29223 3.88827 2.86864C3.8876 3.95698 3.90657 4.08432 4.11578 4.39571C4.27201 4.62825 4.67178 4.9575 4.74687 4.91548C4.77098 4.90199 4.79071 4.91018 4.79071 4.93368C4.79071 5.04243 5.13567 5.10137 5.77208 5.10137C6.39466 5.10137 6.43851 5.09521 6.67796 4.9741C7.07354 4.77401 7.37276 4.42583 7.41925 4.1115C7.42926 4.04382 7.4534 3.97401 7.4729 3.95635C7.4924 3.9387 7.50836 3.33304 7.50836 2.61044V1.29662H8.5149H9.52143V2.62624C9.52143 3.89455 9.52649 3.966 9.63106 4.17549C9.69135 4.29627 9.75929 4.3951 9.78204 4.3951C9.80478 4.3951 9.82339 4.42466 9.82339 4.46079C9.82339 4.53144 10.2901 4.87386 10.5783 5.01468C10.7241 5.0859 10.863 5.1008 11.3835 5.10106C12.0779 5.10141 12.1682 5.07545 12.5781 4.75766C13.0678 4.37805 13.1408 4.08525 13.1432 2.49272L13.145 1.29662H14.3006H15.4562L15.4594 2.58385C15.4629 3.96283 15.4742 4.10335 15.6016 4.34954C15.7063 4.55172 16.0677 4.872 16.3356 5.00003C16.5193 5.08778 16.6224 5.09879 17.2718 5.10001C17.8796 5.10114 18.0436 5.08646 18.2531 5.01214C18.5705 4.89962 18.8319 4.76293 18.8319 4.70956C18.8319 4.68698 18.8666 4.6685 18.909 4.6685C18.9514 4.6685 19.0012 4.63261 19.0197 4.58876C19.0382 4.5449 19.0941 4.46927 19.1439 4.42068C19.1937 4.3721 19.2374 4.30546 19.2408 4.2726C19.2443 4.23973 19.2528 4.19233 19.2597 4.16727C19.2666 4.14221 19.2751 3.48606 19.2786 2.70916L19.2848 1.29662H20.3076C21.1217 1.29662 21.3809 1.31188 21.5783 1.37142C21.7148 1.41257 21.8547 1.46634 21.8893 1.49092C21.9239 1.5155 21.9522 1.52155 21.9522 1.50438C21.9522 1.43013 22.4142 1.93045 22.5177 2.1168L22.6316 2.32185L22.6439 7.40246C22.6507 10.1968 22.6393 12.4616 22.6187 12.4353C22.5669 12.3692 22.2639 12.1806 22.1894 12.168C22.1558 12.1624 21.9723 12.0925 21.7816 12.0128C21.591 11.9331 21.4143 11.8679 21.3889 11.8679C21.3615 11.8679 21.3468 10.8316 21.3526 9.30484L21.3624 6.74175L11.4283 6.72929C5.96462 6.72244 1.44334 6.72796 1.38106 6.74155L1.26782 6.76627V12.8002C1.26782 17.5712 1.28096 18.8415 1.3306 18.8693C1.36512 18.8886 3.52603 18.9052 6.13262 18.9061C8.73921 18.9071 10.8889 18.9233 10.9096 18.9421C10.9304 18.9609 10.9531 19.0224 10.96 19.0788C10.9669 19.1351 10.9757 19.1813 10.9796 19.1813C10.9835 19.1813 10.9963 19.2648 11.0081 19.3669C11.0198 19.469 11.0638 19.6407 11.1058 19.7485C11.1478 19.8563 11.1822 19.983 11.1822 20.03C11.1822 20.1129 11.0436 20.1152 6.38858 20.11C3.75208 20.1071 1.49157 20.0888 1.36522 20.0694Z" fill="#6BB8E8"/>
<path fill-rule="evenodd" clip-rule="evenodd" d="M5.24875 4.4456C5.04004 4.41228 4.90832 4.31614 4.63982 4.00118C4.58323 3.93479 4.57997 0.522328 4.6365 0.522328C4.65949 0.522328 4.70511 0.463722 4.73788 0.392091C4.8487 0.149863 5.04976 0.062295 5.57497 0.0275232C5.83587 0.0102503 6.04933 0.011992 6.04933 0.0313936C6.04933 0.0507952 6.08588 0.0666688 6.13055 0.0666688C6.17522 0.0666688 6.29876 0.110935 6.40508 0.165038C6.74352 0.337256 6.75391 0.397965 6.75391 2.2035C6.75391 3.077 6.73946 3.85707 6.72181 3.93699C6.70416 4.01691 6.60706 4.16255 6.50604 4.26064C6.32535 4.43608 6.31542 4.43932 5.89647 4.45999C5.66222 4.47155 5.37075 4.46507 5.24875 4.4456Z" fill="#6BB8E8"/>
<path fill-rule="evenodd" clip-rule="evenodd" d="M10.6036 4.36393C10.2494 4.14603 10.2517 4.15905 10.2441 2.25366L10.2373 0.544939L10.3572 0.375296C10.4231 0.281993 10.5508 0.170737 10.6408 0.128062C10.8449 0.0313047 11.533 -0.0077698 11.8157 0.0613457C12.0272 0.113065 12.2388 0.246563 12.2388 0.328266C12.2388 0.353585 12.2738 0.4006 12.3166 0.432745C12.3594 0.46489 12.3827 0.518663 12.3685 0.552239C12.3543 0.585816 12.3589 0.613272 12.3788 0.613252C12.3987 0.613232 12.4036 1.37867 12.3898 2.31422L12.3646 4.01523L12.2213 4.18529C12.0269 4.41587 11.8967 4.45509 11.2951 4.46414C10.8274 4.47119 10.7627 4.46181 10.6036 4.36393Z" fill="#6BB8E8"/>
<path fill-rule="evenodd" clip-rule="evenodd" d="M16.9401 4.44989C16.7765 4.43894 16.6934 4.39849 16.5375 4.25393L16.341 4.07176V2.27745C16.341 0.230772 16.3195 0.334092 16.7915 0.111529C17.0139 0.00668487 17.0698 -0.000440905 17.469 0.0251171C18.0613 0.0630399 18.2315 0.154418 18.3769 0.512394C18.454 0.702413 18.4629 0.907265 18.4543 2.29905C18.4479 3.33968 18.4255 3.91343 18.388 3.99638C18.3569 4.0653 18.3443 4.12169 18.3601 4.12169C18.4597 4.12169 17.9412 4.44185 17.8334 4.44687C17.521 4.46142 17.132 4.46274 16.9401 4.44989Z" fill="#6BB8E8"/>
<path fill-rule="evenodd" clip-rule="evenodd" d="M3.34258 9.66943L3.35605 8.56445H4.76521H6.17436L6.18858 9.5669C6.1964 10.1183 6.19031 10.6155 6.17504 10.6719L6.14728 10.7744H4.73819H3.3291L3.34258 9.66943Z" fill="#6BB8E8"/>
<path fill-rule="evenodd" clip-rule="evenodd" d="M3.36539 13.8889C3.3465 13.8718 3.33105 13.3794 3.33105 12.7946C3.33105 11.8143 3.33792 11.731 3.41913 11.7266C3.46757 11.7239 4.09169 11.7181 4.80606 11.7137C5.738 11.708 6.11858 11.7206 6.15326 11.7584C6.18197 11.7898 6.19611 12.2347 6.18807 12.8535L6.17452 13.8958L4.78712 13.9079C4.02405 13.9145 3.38427 13.906 3.36539 13.8889Z" fill="#6BB8E8"/>
<path fill-rule="evenodd" clip-rule="evenodd" d="M3.38911 17.2945C3.34536 17.27 3.33315 16.9778 3.34309 16.1936L3.35662 15.126H4.76577H6.17493L6.18846 16.1936C6.19837 16.9753 6.18611 17.27 6.14269 17.2943C6.06509 17.3377 3.46669 17.3379 3.38911 17.2945Z" fill="#6BB8E8"/>
<path fill-rule="evenodd" clip-rule="evenodd" d="M7.9005 17.3015C7.85336 17.2921 7.80465 17.2498 7.79227 17.2075C7.77275 17.1409 7.78107 15.4888 7.80235 15.2056L7.81006 15.103H9.21383C10.4475 15.103 10.6213 15.1118 10.6481 15.1751C10.6649 15.2147 10.6787 15.6959 10.6787 16.2443C10.6787 17.1523 10.6707 17.2453 10.5895 17.2847C10.5063 17.3249 8.09314 17.34 7.9005 17.3015Z" fill="#6BB8E8"/>
<path fill-rule="evenodd" clip-rule="evenodd" d="M7.7921 13.7933C7.75094 13.5963 7.78048 11.7888 7.82553 11.748C7.8841 11.695 10.5398 11.6917 10.616 11.7446C10.7041 11.8056 10.7064 13.7843 10.6185 13.8639C10.5745 13.9038 10.1866 13.9186 9.1882 13.9186H7.81828L7.7921 13.7933Z" fill="#6BB8E8"/>
<path fill-rule="evenodd" clip-rule="evenodd" d="M7.88296 10.5103C7.78238 10.4972 7.77961 10.4703 7.77839 9.49456C7.77733 8.65059 7.78834 8.49613 7.84807 8.51689C7.88709 8.53044 8.50598 8.54153 9.22339 8.54153H10.5278V9.5385V10.5355L9.25702 10.5296C8.55811 10.5263 7.93978 10.5176 7.88296 10.5103Z" fill="#6BB8E8"/>
<path fill-rule="evenodd" clip-rule="evenodd" d="M12.1483 10.7198C12.1049 10.6805 12.0879 10.3746 12.0879 9.63114C12.0879 8.73027 12.0981 8.59355 12.1675 8.56945C12.3072 8.52091 14.8976 8.5379 14.9315 8.58758C14.9567 8.62441 14.9821 10.3911 14.9618 10.6948C14.9569 10.7687 14.8555 10.7745 13.5826 10.7745C12.5811 10.7745 12.1923 10.7597 12.1483 10.7198Z" fill="#6BB8E8"/>
<path fill-rule="evenodd" clip-rule="evenodd" d="M12.1214 14.0249C12.103 14.0082 12.0879 13.52 12.0879 12.9401C12.0879 12.1206 12.1032 11.8666 12.1566 11.8004C12.2203 11.7215 12.319 11.7148 13.5029 11.7077C14.2055 11.7036 14.82 11.7182 14.8685 11.7402C15.0251 11.8114 14.9771 11.9805 14.7804 12.0504C14.6835 12.0848 14.6042 12.1246 14.6042 12.1389C14.6042 12.1532 14.5306 12.1934 14.4407 12.2283C14.3507 12.2632 14.1827 12.3605 14.0673 12.4445C13.952 12.5285 13.8412 12.5972 13.8211 12.5972C13.8011 12.5972 13.72 12.6585 13.6409 12.7335C13.5618 12.8084 13.497 12.8567 13.497 12.8406C13.497 12.8246 13.4289 12.8761 13.3456 12.955C13.2623 13.0339 13.1718 13.0984 13.1443 13.0984C13.1169 13.0984 13.0944 13.1155 13.0944 13.1364C13.0944 13.1573 12.9461 13.3148 12.7648 13.4864C12.5835 13.658 12.3974 13.8562 12.3513 13.9268C12.2696 14.0521 12.1893 14.0864 12.1214 14.0249Z" fill="#6BB8E8"/>
<path fill-rule="evenodd" clip-rule="evenodd" d="M16.346 10.7022C16.3292 10.6625 16.3154 10.1602 16.3154 9.58579V8.5415H17.7497H19.1841V9.58627C19.1841 10.4753 19.1723 10.6417 19.105 10.7026C19.0371 10.7641 18.8384 10.7742 17.7012 10.7742C16.5397 10.7742 16.3728 10.7654 16.346 10.7022Z" fill="#6BB8E8"/>
<path fill-rule="evenodd" clip-rule="evenodd" d="M17.4464 23.9943C17.429 23.9786 17.3771 23.9642 17.3309 23.9623C16.7157 23.9373 15.4882 23.5243 14.7559 23.0958C13.9971 22.6518 13.2939 22.0243 12.7576 21.3126C12.6424 21.1597 12.2538 20.4846 12.1209 20.2065C11.9559 19.8612 11.7176 18.9868 11.727 18.761C11.7304 18.6789 11.7169 18.6117 11.697 18.6117C11.6513 18.6117 11.6561 17.3709 11.702 17.3036C11.7207 17.2762 11.7327 17.2057 11.7288 17.1468C11.7248 17.0879 11.7579 16.8859 11.8024 16.6979C12.1785 15.1066 13.242 13.7219 14.781 12.8198C14.9748 12.7063 15.2352 12.5706 15.3598 12.5184C15.7362 12.3606 16.0851 12.226 16.165 12.2079C16.2065 12.1984 16.3651 12.1577 16.5173 12.1174C18.0893 11.7012 19.8935 11.858 21.3487 12.5371C22.149 12.9107 22.5107 13.1557 23.163 13.7662C23.6354 14.2083 23.8665 14.4827 24.1165 14.8981C24.2069 15.0484 24.2968 15.192 24.3161 15.217C24.4316 15.3671 24.7517 16.1418 24.8433 16.4929C25.1377 17.6209 25.095 18.7728 24.7211 19.7964C24.5556 20.2496 24.1814 21.0169 24.0878 21.0951C24.0578 21.1201 23.9559 21.2534 23.8614 21.3912C23.6376 21.7177 23.5273 21.8345 22.9885 22.3152C22.6041 22.6581 21.968 23.1227 21.8829 23.1227C21.8684 23.1227 21.7773 23.1713 21.6807 23.2307C21.4594 23.3667 20.5109 23.7446 20.228 23.8094C20.1109 23.8363 19.9018 23.8779 19.7634 23.9019C19.625 23.926 19.4438 23.9578 19.3608 23.9726C19.1498 24.0104 17.485 24.0292 17.4464 23.9943ZM19.3353 23.0505C19.6526 23.0085 20.3239 22.812 20.6477 22.6664C21.5139 22.277 21.7754 22.1087 22.3804 21.5513C23.2063 20.7902 23.6293 20.0848 23.8863 19.0395C24.0974 18.1809 24.039 17.1299 23.738 16.3685C23.6957 16.2615 23.656 16.1547 23.6498 16.1312C23.6173 16.008 23.0961 15.124 22.9863 15.0058C22.916 14.9302 22.8585 14.8527 22.8585 14.8337C22.8585 14.7668 21.9691 13.9752 21.7482 13.8454C21.6253 13.7732 21.5135 13.7025 21.4997 13.6882C21.4213 13.6073 20.8143 13.3135 20.468 13.1889C19.7044 12.9142 19.2011 12.8301 18.318 12.8296C17.8612 12.8293 17.5141 12.8478 17.4967 12.8733C17.4801 12.8976 17.445 12.9054 17.4187 12.8907C17.3924 12.876 17.2873 12.8889 17.1852 12.9194C17.0831 12.9499 16.9646 12.978 16.922 12.9818C16.8235 12.9905 16.2026 13.1707 16.0808 13.2259C15.9886 13.2676 15.7545 13.378 15.5466 13.4778C14.5381 13.962 13.4805 15.0717 13.0639 16.0828C12.883 16.5219 12.8079 16.7613 12.7635 17.0397C12.6467 17.7725 12.6359 18.1313 12.7168 18.5889C12.7301 18.6641 12.7537 18.8076 12.7692 18.9079C12.7998 19.1058 12.9707 19.6723 13.044 19.8192C13.0691 19.8693 13.1363 20.007 13.1934 20.1252C13.3276 20.4026 13.5657 20.7541 13.85 21.0943C14.0899 21.3813 14.4758 21.7558 14.5318 21.7558C14.5502 21.7558 14.6102 21.8076 14.6653 21.8709C14.7768 21.9993 15.4486 22.4071 15.8426 22.5856C16.3276 22.8053 17.0928 23.0224 17.5239 23.0625C17.6761 23.0767 17.812 23.0983 17.8258 23.1105C17.8569 23.138 19.0255 23.0915 19.3353 23.0505Z" fill="#6BB8E8"/>
<path fill-rule="evenodd" clip-rule="evenodd" d="M15.7904 14.5866C15.6395 14.45 15.6261 14.3065 15.7492 14.1453C15.94 13.8955 16.4157 14.0387 16.4157 14.3459C16.4157 14.547 16.3241 14.6445 16.1047 14.6767C15.9505 14.6994 15.8984 14.6844 15.7904 14.5866Z" fill="#6BB8E8"/>
<path fill-rule="evenodd" clip-rule="evenodd" d="M18.1444 14.139C17.9689 14.0607 17.9215 13.7607 18.052 13.554C18.0915 13.4914 18.1247 13.4565 18.1257 13.4766C18.1267 13.4966 18.1654 13.4938 18.2117 13.4703C18.3414 13.4046 18.5728 13.4996 18.6615 13.655C18.8426 13.9721 18.4964 14.2962 18.1444 14.139Z" fill="#6BB8E8"/>
<path fill-rule="evenodd" clip-rule="evenodd" d="M20.4797 14.6455C20.4313 14.6189 20.3916 14.6124 20.3916 14.6309C20.3916 14.6495 20.3617 14.6276 20.325 14.5822C20.2796 14.526 20.2691 14.4361 20.292 14.2997C20.3328 14.0561 20.3361 14.0529 20.5762 14.0241C21.0761 13.964 21.205 14.5916 20.7091 14.6712C20.6314 14.6836 20.5281 14.6721 20.4797 14.6455Z" fill="#6BB8E8"/>
<path fill-rule="evenodd" clip-rule="evenodd" d="M14.1834 16.1835C14.1453 16.1648 14.1142 16.1553 14.1142 16.1625C14.1142 16.1697 14.0986 16.1624 14.0796 16.1463C14.0606 16.1302 14.0505 16.1041 14.0571 16.0884C14.0638 16.0727 14.0567 16.0598 14.0414 16.0598C14.0261 16.0598 14.0135 16.0444 14.0135 16.0256C14.0135 16.0068 14.0042 15.9915 13.9929 15.9915C13.9623 15.9915 13.9982 15.784 14.0402 15.7181C14.1155 15.5998 14.1715 15.5586 14.257 15.5586C14.3196 15.5586 14.3409 15.5486 14.3414 15.5187C14.3422 15.4807 14.3434 15.4807 14.3678 15.5187C14.382 15.5407 14.4239 15.5589 14.4614 15.5593C14.5417 15.5602 14.5831 15.587 14.6751 15.6974C14.7759 15.8185 14.7708 15.9657 14.6615 16.0952C14.6011 16.1667 14.5566 16.1956 14.4916 16.2054C14.3514 16.2267 14.2578 16.22 14.1834 16.1835Z" fill="#6BB8E8"/>
<path fill-rule="evenodd" clip-rule="evenodd" d="M13.5097 18.2732L13.3965 18.1738V18.0067C13.3965 17.8476 13.4005 17.8359 13.4821 17.7598C13.5587 17.6882 13.6512 17.6501 13.7614 17.6447C13.8702 17.6395 14.0618 17.7419 14.0629 17.8059C14.0631 17.82 14.0803 17.8444 14.1011 17.86C14.142 17.8907 14.1544 18.0764 14.1169 18.0974C14.1048 18.1041 14.0881 18.1408 14.0797 18.179C14.0712 18.2171 14.0443 18.2548 14.0198 18.2627C13.9953 18.2705 13.9548 18.2929 13.9299 18.3123C13.9049 18.3318 13.8256 18.3533 13.7537 18.3601C13.6262 18.3723 13.6201 18.3701 13.5097 18.2732Z" fill="#6BB8E8"/>
<path fill-rule="evenodd" clip-rule="evenodd" d="M14.1169 20.3009C14.0117 20.2056 13.9727 20.0946 14.0012 19.9712C14.0208 19.8865 14.1792 19.7282 14.2444 19.7282C14.2692 19.7282 14.2896 19.7179 14.2896 19.7054C14.2896 19.6929 14.3179 19.6826 14.3525 19.6826C14.3871 19.6826 14.4154 19.6916 14.4154 19.7026C14.4154 19.7135 14.45 19.7288 14.4924 19.7364C14.5742 19.7512 14.6274 19.7897 14.6983 19.8854C14.747 19.9511 14.7616 20.2066 14.7168 20.2066C14.7026 20.2066 14.6802 20.2323 14.6671 20.2636C14.6539 20.2949 14.6273 20.3205 14.6078 20.3205C14.5884 20.3205 14.5585 20.3359 14.5412 20.3547C14.5199 20.378 14.4628 20.3889 14.362 20.3889C14.2239 20.3889 14.2077 20.3831 14.1169 20.3009Z" fill="#6BB8E8"/>
<path fill-rule="evenodd" clip-rule="evenodd" d="M15.8304 21.8575C15.6709 21.7242 15.6343 21.5846 15.7193 21.4337C15.7968 21.2962 15.8563 21.2542 15.9952 21.2393C16.1016 21.2279 16.1386 21.2345 16.2182 21.279C16.3829 21.3712 16.4087 21.407 16.4225 21.5625C16.435 21.7036 16.4339 21.7067 16.3364 21.8013C16.2454 21.8896 16.2248 21.8983 16.0752 21.9118C15.9193 21.9259 15.9095 21.9237 15.8304 21.8575Z" fill="#6BB8E8"/>
<path fill-rule="evenodd" clip-rule="evenodd" d="M18.2658 22.4843C18.2658 22.472 18.2468 22.462 18.2236 22.462C18.1752 22.462 18.0142 22.3119 18.0142 22.2669C18.0142 22.2504 18.0029 22.2306 17.989 22.2228C17.9752 22.2151 17.9639 22.1726 17.9639 22.1284C17.9639 22.0302 18.0902 21.8606 18.1944 21.8188C18.2337 21.8031 18.2658 21.7842 18.2658 21.7769C18.2658 21.7696 18.3224 21.7742 18.3916 21.787C18.4608 21.7998 18.5175 21.8186 18.5175 21.8286C18.5175 21.8387 18.5344 21.8469 18.5552 21.8469C18.576 21.8469 18.593 21.8632 18.593 21.8832C18.593 21.9032 18.6156 21.9249 18.6433 21.9314C18.671 21.938 18.6936 21.962 18.6936 21.9849C18.6936 22.0078 18.7049 22.0328 18.7188 22.0405C18.7326 22.0483 18.7439 22.1009 18.7439 22.1574C18.7439 22.2498 18.7323 22.2702 18.6275 22.3611C18.5585 22.4209 18.4875 22.462 18.453 22.462C18.4211 22.462 18.3659 22.472 18.3304 22.4843C18.2884 22.4987 18.2658 22.4987 18.2658 22.4843Z" fill="#6BB8E8"/>
<path fill-rule="evenodd" clip-rule="evenodd" d="M20.48 21.8995C20.4454 21.8931 20.408 21.8735 20.397 21.8559C20.3859 21.8383 20.3632 21.8239 20.3466 21.8239C20.33 21.8239 20.3146 21.796 20.3125 21.7619C20.3103 21.7278 20.2961 21.6962 20.281 21.6917C20.2408 21.6795 20.249 21.5009 20.2921 21.4493C20.3124 21.425 20.3293 21.3891 20.3296 21.3696C20.3299 21.35 20.3723 21.3084 20.4239 21.2771C20.5 21.2309 20.5428 21.2214 20.65 21.227C20.7706 21.2333 20.7931 21.2438 20.9061 21.3461C21.0835 21.5067 21.0921 21.6444 20.9348 21.8049C20.847 21.8945 20.8327 21.9004 20.6922 21.9056C20.6101 21.9087 20.5146 21.9059 20.48 21.8995Z" fill="#6BB8E8"/>
<path fill-rule="evenodd" clip-rule="evenodd" d="M22.1907 20.3672C22.1907 20.3552 22.1512 20.3387 22.1029 20.3305C22.0545 20.3223 22.021 20.3067 22.0284 20.2959C22.0358 20.2851 22.023 20.2504 22.0001 20.2186C21.969 20.1757 21.9609 20.1246 21.9684 20.0179C21.977 19.8958 21.9898 19.8641 22.0559 19.8015C22.0984 19.7612 22.1512 19.7282 22.1731 19.7282C22.195 19.7282 22.2199 19.718 22.2284 19.7054C22.2477 19.6773 22.392 19.675 22.392 19.7029C22.392 19.714 22.4316 19.7299 22.4801 19.7381C22.5285 19.7463 22.5682 19.7642 22.5682 19.7779C22.5682 19.7916 22.5974 19.8273 22.6331 19.8572C22.6886 19.9038 22.6983 19.9318 22.6999 20.0491C22.7016 20.1841 22.6995 20.1883 22.5833 20.2877C22.4731 20.382 22.4555 20.3889 22.3278 20.3889C22.2524 20.3889 22.1907 20.3791 22.1907 20.3672Z" fill="#6BB8E8"/>
<path fill-rule="evenodd" clip-rule="evenodd" d="M22.845 18.2626C22.8101 18.2461 22.766 18.2372 22.7472 18.2429C22.7278 18.2488 22.72 18.2429 22.7292 18.2294C22.7381 18.2162 22.726 18.1878 22.7021 18.1662C22.6674 18.1347 22.6598 18.0915 22.6642 17.9479C22.67 17.7571 22.6831 17.7335 22.8311 17.6465C22.9095 17.6005 23.1279 17.59 23.1432 17.6315C23.1479 17.6444 23.1654 17.655 23.1819 17.655C23.2331 17.655 23.2977 17.7423 23.3299 17.8549C23.3468 17.9141 23.3722 17.9701 23.3863 17.9793C23.4025 17.9899 23.4005 17.9962 23.3808 17.9964C23.3637 17.9966 23.3372 18.0415 23.322 18.0962C23.2999 18.1757 23.2752 18.2053 23.1987 18.2443C23.0905 18.2993 22.9393 18.3072 22.845 18.2626Z" fill="#6BB8E8"/>
<path fill-rule="evenodd" clip-rule="evenodd" d="M22.2519 16.2231C22.264 16.2054 22.2484 16.1965 22.2057 16.1965C22.1703 16.1965 22.1413 16.1862 22.1413 16.1737C22.1413 16.1612 22.1268 16.1509 22.1091 16.1509C22.0584 16.1509 21.991 16.0658 21.9686 15.9734C21.9574 15.9269 21.935 15.8915 21.9189 15.8946C21.9028 15.8977 21.8896 15.8852 21.8896 15.8668C21.8896 15.848 21.9046 15.8386 21.9239 15.8453C21.9481 15.8537 21.9621 15.8305 21.9717 15.7659C21.9865 15.666 22.0895 15.5586 22.1705 15.5586C22.1963 15.5586 22.239 15.5464 22.2653 15.5315C22.3029 15.5103 22.3366 15.5114 22.422 15.5369C22.5374 15.5714 22.5803 15.602 22.6503 15.6998C22.6971 15.7652 22.7183 15.9856 22.6801 16.0106C22.6675 16.0188 22.6449 16.0457 22.6298 16.0703C22.5992 16.1205 22.4896 16.1813 22.389 16.204C22.3522 16.2123 22.3022 16.226 22.2779 16.2344C22.2477 16.2449 22.2394 16.2413 22.2519 16.2231Z" fill="#6BB8E8"/>
<path d="M16.0763 14.7098C16.3073 14.7098 16.4945 14.5511 16.4945 14.3554C16.4945 14.1597 16.3073 14.001 16.0763 14.001C15.8454 14.001 15.6582 14.1597 15.6582 14.3554C15.6582 14.5511 15.8454 14.7098 16.0763 14.7098Z" fill="#6BB8E8"/>
<path d="M14.3683 16.2401C14.5993 16.2401 14.7865 16.0814 14.7865 15.8857C14.7865 15.6899 14.5993 15.5312 14.3683 15.5312C14.1374 15.5312 13.9502 15.6899 13.9502 15.8857C13.9502 16.0814 14.1374 16.2401 14.3683 16.2401Z" fill="#6BB8E8"/>
<path d="M13.7453 18.3827C13.9762 18.3827 14.1634 18.224 14.1634 18.0282C14.1634 17.8325 13.9762 17.6738 13.7453 17.6738C13.5144 17.6738 13.3271 17.8325 13.3271 18.0282C13.3271 18.224 13.5144 18.3827 13.7453 18.3827Z" fill="#6BB8E8"/>
<path d="M14.3859 20.3968C14.6168 20.3968 14.8041 20.2381 14.8041 20.0424C14.8041 19.8467 14.6168 19.688 14.3859 19.688C14.155 19.688 13.9678 19.8467 13.9678 20.0424C13.9678 20.2381 14.155 20.3968 14.3859 20.3968Z" fill="#6BB8E8"/>
<path d="M16.0763 21.9593C16.3073 21.9593 16.4945 21.8006 16.4945 21.6049C16.4945 21.4092 16.3073 21.2505 16.0763 21.2505C15.8454 21.2505 15.6582 21.4092 15.6582 21.6049C15.6582 21.8006 15.8454 21.9593 16.0763 21.9593Z" fill="#6BB8E8"/>
<path d="M18.3361 22.4911C18.567 22.4911 18.7543 22.3324 18.7543 22.1366C18.7543 21.9409 18.567 21.7822 18.3361 21.7822C18.1052 21.7822 17.918 21.9409 17.918 22.1366C17.918 22.3324 18.1052 22.4911 18.3361 22.4911Z" fill="#6BB8E8"/>
<path d="M20.6496 21.911C20.8805 21.911 21.0677 21.7523 21.0677 21.5566C21.0677 21.3608 20.8805 21.2021 20.6496 21.2021C20.4187 21.2021 20.2314 21.3608 20.2314 21.5566C20.2314 21.7523 20.4187 21.911 20.6496 21.911Z" fill="#6BB8E8"/>
<path d="M22.3752 20.3968C22.6061 20.3968 22.7933 20.2381 22.7933 20.0424C22.7933 19.8467 22.6061 19.688 22.3752 19.688C22.1442 19.688 21.957 19.8467 21.957 20.0424C21.957 20.2381 22.1442 20.3968 22.3752 20.3968Z" fill="#6BB8E8"/>
<path d="M23.0334 18.3026C23.2643 18.3026 23.4515 18.1439 23.4515 17.9482C23.4515 17.7524 23.2643 17.5938 23.0334 17.5938C22.8024 17.5938 22.6152 17.7524 22.6152 17.9482C22.6152 18.1439 22.8024 18.3026 23.0334 18.3026Z" fill="#6BB8E8"/>
<path d="M22.3224 16.2079C22.5534 16.2079 22.7406 16.0492 22.7406 15.8534C22.7406 15.6577 22.5534 15.499 22.3224 15.499C22.0915 15.499 21.9043 15.6577 21.9043 15.8534C21.9043 16.0492 22.0915 16.2079 22.3224 16.2079Z" fill="#6BB8E8"/>
<path d="M20.632 14.6937C20.8629 14.6937 21.0502 14.535 21.0502 14.3393C21.0502 14.1435 20.8629 13.9849 20.632 13.9849C20.4011 13.9849 20.2139 14.1435 20.2139 14.3393C20.2139 14.535 20.4011 14.6937 20.632 14.6937Z" fill="#6BB8E8"/>
<path d="M18.3361 14.1297C18.567 14.1297 18.7543 13.9711 18.7543 13.7753C18.7543 13.5796 18.567 13.4209 18.3361 13.4209C18.1052 13.4209 17.918 13.5796 17.918 13.7753C17.918 13.9711 18.1052 14.1297 18.3361 14.1297Z" fill="#6BB8E8"/>
<path d="M18.8081 15.8426C18.8081 15.5104 18.6009 15.2412 18.3454 15.2412C18.0899 15.2412 17.8828 15.5104 17.8828 15.8426V18.3774C17.8828 18.7095 18.0899 18.9787 18.3454 18.9787C18.6009 18.9787 18.8081 18.7095 18.8081 18.3774V15.8426Z" fill="#6BB8E8"/>
<path d="M20.7024 18.8822C21.1105 18.8822 21.4414 18.6946 21.4414 18.4633C21.4414 18.232 21.1105 18.0444 20.7024 18.0444H18.693C18.2848 18.0444 17.9539 18.232 17.9539 18.4633C17.9539 18.6946 18.2848 18.8822 18.693 18.8822H20.7024Z" fill="#6BB8E8"/>
<path d="M17.8911 18.8338C18.3579 18.8338 18.7363 18.6643 18.7363 18.4552C18.7363 18.2462 18.3579 18.0767 17.8911 18.0767C17.4243 18.0767 17.0459 18.2462 17.0459 18.4552C17.0459 18.6643 17.4243 18.8338 17.8911 18.8338Z" fill="#6BB8E8"/>
<path d="M18.7541 18.2524C18.7541 17.8439 18.551 17.5127 18.3004 17.5127C18.0498 17.5127 17.8467 17.8439 17.8467 18.2524V19.0123C17.8467 19.4208 18.0498 19.752 18.3004 19.752C18.551 19.752 18.7541 19.4208 18.7541 19.0123V18.2524Z" fill="#6BB8E8"/>
</svg>
