<svg width="35" height="35" viewBox="0 0 30 18" fill="none" xmlns="http://www.w3.org/2000/svg">
<path d="M3.95374 7.66966H12.0417V10.6937H3.95374V7.66966ZM4.24174 14.5817H13.3857V17.7017H0.377742V0.901659H13.0737V4.02166H4.24174V14.5817ZM24.0633 4.59766C25.0873 4.59766 25.9993 4.80566 26.7993 5.22166C27.6153 5.62166 28.2553 6.24566 28.7193 7.09366C29.1833 7.92566 29.4153 8.99766 29.4153 10.3097V17.7017H25.6713V10.8857C25.6713 9.84566 25.4393 9.07766 24.9753 8.58166C24.5273 8.08566 23.8873 7.83766 23.0553 7.83766C22.4633 7.83766 21.9273 7.96566 21.4473 8.22166C20.9833 8.46166 20.6153 8.83766 20.3433 9.34966C20.0873 9.86166 19.9593 10.5177 19.9593 11.3177V17.7017H16.2153V4.78966H19.7913V8.36566L19.1193 7.28566C19.5833 6.42166 20.2473 5.75766 21.1113 5.29366C21.9753 4.82966 22.9593 4.59766 24.0633 4.59766Z" fill="white"/>
</svg>
