<svg width="43" height="45" viewBox="0 0 34 35" fill="none" xmlns="http://www.w3.org/2000/svg">
<path d="M6.54878 13.7265L2.71777 17.5448L6.64376 21.4574C9.5091 24.3149 13.2757 25.7442 17.0445 25.7442C20.81 25.7442 24.5767 24.3149 27.4452 21.4574L31.2741 17.6391L27.3481 13.7265C24.4796 10.8701 20.714 9.44189 16.9474 9.44189C13.1807 9.44189 9.41518 10.8701 6.54878 13.7265ZM7.32448 20.7764L4.08132 17.5448L7.2295 14.4075C12.5876 9.06777 21.3092 9.06777 26.6674 14.4075L29.9095 17.6391L26.7624 20.7764C24.0828 23.4463 20.5631 24.7812 17.0445 24.7812C13.5248 24.7812 10.003 23.4463 7.32448 20.7764Z" fill="white"/>
<path d="M13.2921 16.0996C13.2881 16.1555 13.2954 16.2117 13.3135 16.2645C13.3316 16.3174 13.3601 16.3659 13.3972 16.407C13.4343 16.448 13.4793 16.4807 13.5293 16.5031C13.5793 16.5255 13.6333 16.5371 13.6878 16.5371C13.7424 16.5371 13.7963 16.5255 13.8464 16.5031C13.8964 16.4807 13.9413 16.448 13.9785 16.407C14.0156 16.3659 14.0441 16.3174 14.0622 16.2645C14.0803 16.2117 14.0876 16.1555 14.0836 16.0996C14.0836 14.9761 14.9743 14.0631 16.0688 14.0631C16.174 14.0631 16.2749 14.0201 16.3494 13.9436C16.4238 13.8672 16.4656 13.7634 16.4656 13.6553C16.4656 13.5472 16.4238 13.4435 16.3494 13.367C16.2749 13.2905 16.174 13.2476 16.0688 13.2476C15.3327 13.2481 14.6269 13.5488 14.1063 14.0835C13.5858 14.6182 13.2929 15.3433 13.2921 16.0996Z" fill="white"/>
<path d="M10.5293 16.9445C10.5293 20.0915 13.3767 22.6497 16.8753 22.6497C20.3738 22.6497 23.2212 20.0915 23.2212 16.9445C23.2212 13.8007 20.3759 11.2393 16.8753 11.2393C13.3767 11.2393 10.5293 13.8007 10.5293 16.9445ZM11.5055 16.9445C11.5055 14.2843 13.9139 12.1166 16.8753 12.1166C19.8356 12.1166 22.245 14.2843 22.245 16.9445C22.245 19.6078 19.8356 21.7735 16.8753 21.7735C13.9139 21.7735 11.5055 19.6078 11.5055 16.9445Z" fill="white"/>
</svg>
