<svg width="21" height="20" viewBox="0 0 21 20" fill="none" xmlns="http://www.w3.org/2000/svg">
<g clip-path="url(#clip0_246_1527)">
<path d="M4.16667 16H3.5V16.6667H4.16667V16Z" fill="#EDEDED"/>
<path d="M5.49967 16H4.83301V16.6667H5.49967V16Z" fill="#EDEDED"/>
<path d="M4.16667 14.6665H3.5V15.3332H4.16667V14.6665Z" fill="#EDEDED"/>
<path d="M5.49967 14.6665H4.83301V15.3332H5.49967V14.6665Z" fill="#EDEDED"/>
<path d="M4.16667 13.3335H3.5V14.0002H4.16667V13.3335Z" fill="#EDEDED"/>
<path d="M5.49967 13.3335H4.83301V14.0002H5.49967V13.3335Z" fill="#EDEDED"/>
<path d="M4.16667 12H3.5V12.6667H4.16667V12Z" fill="#EDEDED"/>
<path d="M5.49967 12H4.83301V12.6667H5.49967V12Z" fill="#EDEDED"/>
<path d="M4.16667 10.6665H3.5V11.3332H4.16667V10.6665Z" fill="#EDEDED"/>
<path d="M5.49967 10.6665H4.83301V11.3332H5.49967V10.6665Z" fill="#EDEDED"/>
<path d="M4.16667 9.3335H3.5V10.0002H4.16667V9.3335Z" fill="#EDEDED"/>
<path d="M5.49967 9.3335H4.83301V10.0002H5.49967V9.3335Z" fill="#EDEDED"/>
<path d="M4.16667 8H3.5V8.66667H4.16667V8Z" fill="#EDEDED"/>
<path d="M5.49967 8H4.83301V8.66667H5.49967V8Z" fill="#EDEDED"/>
<path d="M4.16667 6.6665H3.5V7.33317H4.16667V6.6665Z" fill="#EDEDED"/>
<path d="M5.49967 6.6665H4.83301V7.33317H5.49967V6.6665Z" fill="#EDEDED"/>
<path d="M4.16667 5.3335H3.5V6.00016H4.16667V5.3335Z" fill="#EDEDED"/>
<path d="M5.49967 5.3335H4.83301V6.00016H5.49967V5.3335Z" fill="#EDEDED"/>
<path d="M16.1667 16H15.5V16.6667H16.1667V16Z" fill="#EDEDED"/>
<path d="M17.4997 16H16.833V16.6667H17.4997V16Z" fill="#EDEDED"/>
<path d="M16.1667 14.6665H15.5V15.3332H16.1667V14.6665Z" fill="#EDEDED"/>
<path d="M17.4997 14.6665H16.833V15.3332H17.4997V14.6665Z" fill="#EDEDED"/>
<path d="M16.1667 13.3335H15.5V14.0002H16.1667V13.3335Z" fill="#EDEDED"/>
<path d="M17.4997 13.3335H16.833V14.0002H17.4997V13.3335Z" fill="#EDEDED"/>
<path d="M16.1667 12H15.5V12.6667H16.1667V12Z" fill="#EDEDED"/>
<path d="M10.8337 13.6665H10.167V14.3332H10.8337V13.6665Z" fill="#EDEDED"/>
<path d="M9.49967 13.6665H8.83301V14.3332H9.49967V13.6665Z" fill="#EDEDED"/>
<path d="M12.1667 13.6665H11.5V14.3332H12.1667V13.6665Z" fill="#EDEDED"/>
<path d="M10.8337 12.3335H10.167V13.0002H10.8337V12.3335Z" fill="#EDEDED"/>
<path d="M9.49967 12.3335H8.83301V13.0002H9.49967V12.3335Z" fill="#EDEDED"/>
<path d="M12.1667 12.3335H11.5V13.0002H12.1667V12.3335Z" fill="#EDEDED"/>
<path d="M10.8337 11H10.167V11.6667H10.8337V11Z" fill="#EDEDED"/>
<path d="M9.49967 11H8.83301V11.6667H9.49967V11Z" fill="#EDEDED"/>
<path d="M12.1667 11H11.5V11.6667H12.1667V11Z" fill="#EDEDED"/>
<path d="M10.8337 5.3335H10.167V6.00016H10.8337V5.3335Z" fill="#EDEDED"/>
<path d="M9.49967 5.3335H8.83301V6.00016H9.49967V5.3335Z" fill="#EDEDED"/>
<path d="M12.1667 5.3335H11.5V6.00016H12.1667V5.3335Z" fill="#EDEDED"/>
<path d="M10.8337 4H10.167V4.66667H10.8337V4Z" fill="#EDEDED"/>
<path d="M9.49967 4H8.83301V4.66667H9.49967V4Z" fill="#EDEDED"/>
<path d="M12.1667 4H11.5V4.66667H12.1667V4Z" fill="#EDEDED"/>
<path d="M10.8337 2.6665H10.167V3.33317H10.8337V2.6665Z" fill="#EDEDED"/>
<path d="M9.49967 2.6665H8.83301V3.33317H9.49967V2.6665Z" fill="#EDEDED"/>
<path d="M12.1667 2.6665H11.5V3.33317H12.1667V2.6665Z" fill="#EDEDED"/>
<path d="M17.4997 12H16.833V12.6667H17.4997V12Z" fill="#EDEDED"/>
<path d="M16.1667 10.6665H15.5V11.3332H16.1667V10.6665Z" fill="#EDEDED"/>
<path d="M17.4997 10.6665H16.833V11.3332H17.4997V10.6665Z" fill="#EDEDED"/>
<path d="M16.1667 9.3335H15.5V10.0002H16.1667V9.3335Z" fill="#EDEDED"/>
<path d="M17.4997 9.3335H16.833V10.0002H17.4997V9.3335Z" fill="#EDEDED"/>
<path d="M16.1667 8H15.5V8.66667H16.1667V8Z" fill="#EDEDED"/>
<path d="M17.4997 8H16.833V8.66667H17.4997V8Z" fill="#EDEDED"/>
<path d="M16.1667 6.6665H15.5V7.33317H16.1667V6.6665Z" fill="#EDEDED"/>
<path d="M17.4997 6.6665H16.833V7.33317H17.4997V6.6665Z" fill="#EDEDED"/>
<path d="M16.1667 5.3335H15.5V6.00016H16.1667V5.3335Z" fill="#EDEDED"/>
<path d="M17.4997 5.3335H16.833V6.00016H17.4997V5.3335Z" fill="#EDEDED"/>
<path d="M20.1667 18H19.8333V17.238C20.2287 17.0183 20.5 16.419 20.5 15.6667C20.5 14.7163 20.07 14 19.5 14C19.2224 14.0163 18.9717 14.1714 18.8333 14.4127V4.33333C18.8333 4.14925 18.6841 4 18.5 4H14.5V2H15.5C15.6841 2 15.8333 1.85075 15.8333 1.66667V0.333333C15.8333 0.14925 15.6841 0 15.5 0H5.5C5.31592 0 5.16667 0.14925 5.16667 0.333333V1.66667C5.16667 1.85075 5.31592 2 5.5 2H6.5V4H2.5C2.31592 4 2.16667 4.14925 2.16667 4.33333V14.4127C2.02833 14.1714 1.77763 14.0163 1.5 14C0.93 14 0.5 14.7163 0.5 15.6667C0.5 16.419 0.771333 17.0183 1.16667 17.238V18H0.833333C0.64925 18 0.5 18.1493 0.5 18.3333V19.6667C0.5 19.8507 0.64925 20 0.833333 20H20.1667C20.3507 20 20.5 19.8507 20.5 19.6667V18.3333C20.5 18.1493 20.3507 18 20.1667 18ZM19.5 14.6667C19.583 14.6667 19.8333 15.0213 19.8333 15.6667C19.8333 16.312 19.583 16.6667 19.5 16.6667C19.417 16.6667 19.1667 16.312 19.1667 15.6667C19.1667 15.0213 19.417 14.6667 19.5 14.6667ZM18.8333 16.9207C18.9183 17.0509 19.0324 17.1596 19.1667 17.238V18H18.8333V16.9207ZM18.1667 4.66667V18H14.8333V7C14.8333 6.81592 14.6841 6.66667 14.5 6.66667V4.66667H18.1667ZM5.83333 1.33333V0.666667H15.1667V1.33333H5.83333ZM6.83333 9.33333V7.33333H14.1667V9.33333H6.83333ZM14.1667 10V18H13.5V10H14.1667ZM11.5 15H9.5C9.31592 15 9.16667 15.1493 9.16667 15.3333V18H8.16667V10H12.8333V18H11.8333V15.3333C11.8333 15.1493 11.6841 15 11.5 15ZM11.1667 15.6667V18H9.83333V15.6667H11.1667ZM7.5 10V18H6.83333V10H7.5ZM7.16667 6.66667V2H13.8333V6.66667H7.16667ZM2.83333 4.66667H6.5V6.66667C6.31592 6.66667 6.16667 6.81592 6.16667 7V18H2.83333V4.66667ZM2.16667 16.9207V18H1.83333V17.238C1.96763 17.1596 2.08175 17.0509 2.16667 16.9207ZM1.5 14.6667C1.583 14.6667 1.83333 15.0213 1.83333 15.6667C1.83333 16.312 1.583 16.6667 1.5 16.6667C1.417 16.6667 1.16667 16.312 1.16667 15.6667C1.16667 15.0213 1.417 14.6667 1.5 14.6667ZM19.8333 19.3333H1.16667V18.6667H19.8333V19.3333Z" fill="#EDEDED"/>
<path d="M8.16667 8H7.5V8.66667H8.16667V8Z" fill="#EDEDED"/>
<path d="M13.4997 8H12.833V8.66667H13.4997V8Z" fill="#EDEDED"/>
</g>
<defs>
<clipPath id="clip0_246_1527">
<rect width="20" height="20" fill="white" transform="translate(0.5)"/>
</clipPath>
</defs>
</svg>
