<svg width="43" height="45" viewBox="0 0 34 35" fill="none" xmlns="http://www.w3.org/2000/svg">
<g clip-path="url(#clip0_246_1170)">
<path fill-rule="evenodd" clip-rule="evenodd" d="M22.0026 12.2984C22.0026 13.6927 21.4636 15.0299 20.5041 16.0158C19.5445 17.0018 18.2432 17.5557 16.8862 17.5557C15.5292 17.5557 14.2278 17.0018 13.2683 16.0158C12.3088 15.0299 11.7697 13.6927 11.7697 12.2984C11.7697 10.904 12.3088 9.5668 13.2683 8.58085C14.2278 7.59491 15.5292 7.04102 16.8862 7.04102C18.2432 7.04102 19.5445 7.59491 20.5041 8.58085C21.4636 9.5668 22.0026 10.904 22.0026 12.2984ZM20.2908 20.7645H13.4826C12.4743 20.7644 11.4759 20.9683 10.5443 21.3646C9.61277 21.761 8.7663 22.342 8.05325 23.0745C7.34019 23.807 6.77453 24.6766 6.38856 25.6337C6.00258 26.5908 5.80385 27.6167 5.80371 28.6527H27.9666C27.9666 26.5608 27.1579 24.5546 25.7185 23.0753C24.279 21.596 22.3267 20.7648 20.2908 20.7645Z" stroke="white"/>
</g>
<defs>
<clipPath id="clip0_246_1170">
<rect width="33.772" height="34.7019" fill="white" transform="translate(0 -0.0078125)"/>
</clipPath>
</defs>
</svg>
