<svg width="26" height="25" viewBox="0 0 26 25" fill="none" xmlns="http://www.w3.org/2000/svg">
<path d="M12.3946 15.6663C11.2548 15.5482 10.2271 15.2694 9.34726 14.5857C9.23816 14.5007 9.12542 14.4187 9.02576 14.3237C8.64065 13.9563 8.60188 13.5355 8.90659 13.1018C9.16728 12.7307 9.60493 12.6315 10.0598 12.8446C10.1479 12.8858 10.2318 12.9374 10.3122 12.9928C11.9519 14.112 14.2046 14.1429 15.8505 13.0431C16.0135 12.9189 16.1878 12.8177 16.3898 12.7659C16.7826 12.6658 17.149 12.8091 17.3598 13.1505C17.6006 13.5404 17.5976 13.921 17.3008 14.2237C16.8456 14.6878 16.2982 15.0235 15.69 15.2578C15.1149 15.4794 14.4849 15.5909 13.8615 15.6649C13.9556 15.7666 13.9999 15.8166 14.0587 15.8754C14.9053 16.7203 15.7556 17.5618 16.5994 18.4094C16.8869 18.6982 16.947 19.0563 16.7887 19.3922C16.6156 19.7593 16.2281 20.0008 15.8483 19.975C15.6076 19.9584 15.4199 19.8394 15.2532 19.6725C14.6143 19.0339 13.9634 18.4071 13.3375 17.7563C13.1553 17.5672 13.0676 17.6029 12.9069 17.7672C12.2642 18.4245 11.611 19.0717 10.9539 19.7152C10.6589 20.0042 10.3078 20.0561 9.96566 19.8911C9.60199 19.716 9.37055 19.3472 9.38842 18.9766C9.40073 18.7258 9.52484 18.5344 9.69809 18.3626C10.5359 17.5315 11.3714 16.6983 12.2072 15.8659C12.2625 15.8105 12.3141 15.7518 12.3946 15.6663Z" fill="white"/>
<path d="M13.0883 12.7729C11.055 12.766 9.38764 11.0915 9.39948 9.06843C9.41124 7.02305 11.0796 5.37473 13.1329 5.38039C15.1905 5.38589 16.842 7.05793 16.8316 9.12462C16.8211 11.1436 15.1423 12.7799 13.0883 12.7729ZM14.9362 9.07335C14.9327 8.06888 14.1274 7.26917 13.1182 7.26825C12.1005 7.26718 11.288 8.08141 11.2958 9.09511C11.3034 10.0957 12.1156 10.8898 13.1276 10.8861C14.1365 10.8826 14.9396 10.0777 14.9362 9.07335Z" fill="white"/>
</svg>
