<svg width="26" height="25" viewBox="0 0 26 25" fill="none" xmlns="http://www.w3.org/2000/svg">
<path d="M17.3444 6.15072H4.32227V19.2165H7.94675V14.9657H14.8918L18.0606 19.2165H22.1191L18.6248 14.9462C19.5341 14.8764 20.3767 14.475 20.9689 13.8295C21.5148 12.9949 21.7653 12.022 21.685 11.0479V10.0685C21.7013 9.4666 21.6209 8.86575 21.4463 8.28588C21.2922 7.8353 21.0243 7.42555 20.665 7.09098C20.2794 6.76008 19.8199 6.51257 19.3193 6.36619C18.6746 6.21107 18.0102 6.13858 17.3444 6.15072ZM16.7584 12.0862H7.94675V9.03024H16.7584C17.1145 8.99819 17.4722 9.07375 17.7784 9.24577C17.8817 9.34677 17.9603 9.46737 18.009 9.5992C18.0576 9.73102 18.0753 9.87099 18.0606 10.0097V11.1068C18.077 11.2485 18.0603 11.3919 18.0116 11.5271C17.9629 11.6624 17.8834 11.7862 17.7784 11.8902C17.4691 12.0539 17.1122 12.1224 16.7584 12.0862Z" fill="white"/>
</svg>
