<svg width="26" height="25" viewBox="0 0 26 25" fill="none" xmlns="http://www.w3.org/2000/svg">
<path d="M18.9315 6.26477C18.9315 6.26477 20.3632 5.69916 20.2439 7.0728C20.2041 7.63842 19.8462 9.61811 19.5678 11.7593L18.6134 18.1024C18.6134 18.1024 18.5339 19.0316 17.8181 19.1932C17.1023 19.3548 16.0286 18.6276 15.8297 18.466C15.6707 18.3448 12.8473 16.5267 11.8531 15.6379C11.5747 15.3954 11.2566 14.9107 11.8928 14.345L16.0683 10.3049C16.5455 9.82011 17.0228 8.68888 15.0344 10.0625L9.4671 13.9006C9.4671 13.9006 8.83082 14.3046 7.63785 13.9411L5.053 13.133C5.053 13.133 4.0986 12.527 5.72903 11.921C9.70573 10.0221 14.597 8.0828 18.9315 6.26477Z" fill="white"/>
</svg>
