<svg width="19" height="18" viewBox="0 0 19 18" fill="none" xmlns="http://www.w3.org/2000/svg">
<path fill-rule="evenodd" clip-rule="evenodd" d="M1.48154 14.7066C1.11819 14.6518 0.798585 14.4444 0.603651 14.137L0.525031 14.013L0.506939 8.13069C0.496989 4.89544 0.497843 2.24841 0.508837 2.24841C0.519831 2.24841 0.557776 2.1766 0.593158 2.08883C0.62854 2.00106 0.680603 1.91214 0.708854 1.89123C0.737106 1.87031 0.76022 1.84045 0.76022 1.82488C0.76022 1.78688 0.89611 1.66745 0.939337 1.66745C0.958249 1.66745 0.986743 1.6485 1.00266 1.62534C1.01857 1.60219 1.12115 1.54772 1.2306 1.50431C1.42229 1.42828 1.46385 1.42501 2.36132 1.41533L3.29303 1.40527L3.2945 1.59284C3.29531 1.69601 3.29576 2.11447 3.29551 2.52276C3.29503 3.29366 3.30867 3.38387 3.45908 3.60443C3.5714 3.76915 3.85882 4.00236 3.91281 3.9726C3.93014 3.96304 3.94432 3.96885 3.94432 3.98549C3.94432 4.06252 4.19234 4.10428 4.64989 4.10428C5.0975 4.10428 5.12903 4.09991 5.30118 4.01412C5.58559 3.8724 5.80071 3.62577 5.83414 3.40312C5.84133 3.35518 5.85869 3.30573 5.87271 3.29322C5.88673 3.28072 5.8982 2.8517 5.8982 2.33986V1.40924H6.62186H7.34552V2.35106C7.34552 3.24944 7.34916 3.30005 7.42434 3.44844C7.46769 3.534 7.51653 3.604 7.53289 3.604C7.54924 3.604 7.56262 3.62494 7.56262 3.65053C7.56262 3.70058 7.89814 3.94312 8.10536 4.04287C8.21016 4.09332 8.31003 4.10387 8.68429 4.10406C9.18348 4.1043 9.24841 4.08591 9.54315 3.86081C9.89521 3.59192 9.94773 3.38452 9.94943 2.25648L9.9507 1.40924H10.7815H11.6124L11.6147 2.32103C11.6172 3.29781 11.6253 3.39734 11.7169 3.57173C11.7922 3.71494 12.052 3.9418 12.2447 4.03249C12.3767 4.09465 12.4508 4.10245 12.9177 4.10331C13.3547 4.10412 13.4726 4.09371 13.6233 4.04107C13.8514 3.96137 14.0394 3.86455 14.0394 3.82674C14.0394 3.81075 14.0643 3.79766 14.0948 3.79766C14.1253 3.79766 14.1611 3.77224 14.1744 3.74117C14.1877 3.71011 14.2279 3.65654 14.2637 3.62212C14.2995 3.58771 14.3309 3.54051 14.3334 3.51723C14.3358 3.49395 14.342 3.46037 14.3469 3.44262C14.3519 3.42487 14.358 2.9601 14.3605 2.40979L14.365 1.40924H15.1003C15.6856 1.40924 15.872 1.42005 16.0139 1.46223C16.112 1.49137 16.2126 1.52946 16.2375 1.54687C16.2624 1.56428 16.2827 1.56857 16.2827 1.55641C16.2827 1.50381 16.6149 1.85821 16.6893 1.99021L16.7712 2.13545L16.78 5.73421C16.7849 7.71353 16.7768 9.31775 16.7619 9.29914C16.7247 9.25235 16.5068 9.11872 16.4533 9.10982C16.4291 9.10581 16.2972 9.05634 16.1601 8.99989C16.023 8.94344 15.896 8.89725 15.8778 8.89725C15.858 8.89725 15.8475 8.16318 15.8517 7.08173L15.8587 5.26621L8.71651 5.25739C4.78832 5.25253 1.5377 5.25644 1.49293 5.26607L1.41151 5.28358V9.55761C1.41151 12.9371 1.42096 13.8369 1.45664 13.8565C1.48147 13.8702 3.03507 13.882 4.9091 13.8826C6.78313 13.8833 8.32865 13.8948 8.34359 13.9081C8.35852 13.9214 8.3748 13.965 8.37977 14.0049C8.38474 14.0449 8.39109 14.0775 8.39389 14.0775C8.39669 14.0775 8.4059 14.1367 8.41435 14.209C8.42281 14.2813 8.45444 14.403 8.48464 14.4794C8.51485 14.5557 8.53956 14.6454 8.53956 14.6787C8.53956 14.7374 8.43989 14.7391 5.09313 14.7354C3.1976 14.7333 1.57238 14.7204 1.48154 14.7066Z" fill="#EDEDED"/>
<path fill-rule="evenodd" clip-rule="evenodd" d="M4.27322 3.63985C4.12317 3.61625 4.02847 3.54815 3.83543 3.32505C3.79474 3.27803 3.7924 0.860868 3.83304 0.860868C3.84957 0.860868 3.88237 0.819355 3.90593 0.768617C3.9856 0.597038 4.13016 0.535011 4.50776 0.510381C4.69534 0.498146 4.84881 0.49938 4.84881 0.513123C4.84881 0.526865 4.87509 0.538109 4.9072 0.538109C4.93932 0.538109 5.02814 0.569464 5.10458 0.607787C5.3479 0.729775 5.35537 0.772777 5.35537 2.0517C5.35537 2.67043 5.34499 3.22298 5.3323 3.27959C5.3196 3.3362 5.24979 3.43936 5.17716 3.50884C5.04726 3.63311 5.04012 3.63541 4.73891 3.65005C4.5705 3.65824 4.36094 3.65365 4.27322 3.63985Z" fill="#EDEDED"/>
<path fill-rule="evenodd" clip-rule="evenodd" d="M8.12372 3.58221C7.86908 3.42786 7.87068 3.43708 7.86523 2.08743L7.86035 0.877088L7.94655 0.756924C7.99396 0.690834 8.08571 0.612027 8.15044 0.581799C8.29719 0.513263 8.79193 0.485585 8.99513 0.534542C9.14719 0.571176 9.29934 0.665737 9.29934 0.723611C9.29934 0.741545 9.32451 0.774847 9.35526 0.797617C9.38602 0.820386 9.40281 0.858475 9.39258 0.882258C9.38235 0.906042 9.38568 0.92549 9.39998 0.925476C9.41428 0.925462 9.41784 1.46765 9.40789 2.13033L9.3898 3.33521L9.28674 3.45567C9.14701 3.619 9.05336 3.64678 8.62085 3.65319C8.28463 3.65818 8.2381 3.65153 8.12372 3.58221Z" fill="#EDEDED"/>
<path fill-rule="evenodd" clip-rule="evenodd" d="M12.6789 3.64301C12.5613 3.63526 12.5015 3.6066 12.3894 3.5042L12.2482 3.37517V2.1042C12.2482 0.654471 12.2327 0.727656 12.5721 0.570007C12.732 0.495743 12.7721 0.490695 13.0591 0.508799C13.485 0.535661 13.6074 0.600387 13.7119 0.853953C13.7674 0.98855 13.7737 1.13365 13.7676 2.1195C13.763 2.85662 13.7469 3.26302 13.7199 3.32178C13.6975 3.37059 13.6885 3.41054 13.6998 3.41054C13.7714 3.41054 13.3987 3.63732 13.3212 3.64087C13.0965 3.65118 12.8169 3.65211 12.6789 3.64301Z" fill="#EDEDED"/>
<path fill-rule="evenodd" clip-rule="evenodd" d="M2.90324 7.34031L2.91293 6.55762H3.92606H4.93918L4.9494 7.26769C4.95503 7.65823 4.95065 8.01044 4.93967 8.05038L4.91971 8.123H3.90663H2.89355L2.90324 7.34031Z" fill="#EDEDED"/>
<path fill-rule="evenodd" clip-rule="evenodd" d="M2.92019 10.3288C2.90661 10.3167 2.89551 9.96788 2.89551 9.55367C2.89551 8.85925 2.90044 8.8003 2.95883 8.79715C2.99365 8.79527 3.44237 8.79117 3.95598 8.78805C4.62601 8.78397 4.89962 8.79292 4.92456 8.81972C4.9452 8.8419 4.95536 9.15704 4.94958 9.59538L4.93985 10.3337L3.94236 10.3422C3.39374 10.347 2.93377 10.3409 2.92019 10.3288Z" fill="#EDEDED"/>
<path fill-rule="evenodd" clip-rule="evenodd" d="M2.93679 12.7411C2.90534 12.7237 2.89655 12.5168 2.9037 11.9613L2.91343 11.2051H3.92655H4.93968L4.9494 11.9613C4.95653 12.515 4.94772 12.7238 4.9165 12.741C4.86071 12.7717 2.99257 12.7718 2.93679 12.7411Z" fill="#EDEDED"/>
<path fill-rule="evenodd" clip-rule="evenodd" d="M6.18046 12.7462C6.14657 12.7395 6.11155 12.7096 6.10265 12.6797C6.08861 12.6325 6.0946 11.4622 6.1099 11.2616L6.11544 11.189H7.12469C8.01162 11.189 8.1366 11.1952 8.15591 11.24C8.16799 11.2681 8.17787 11.6089 8.17787 11.9974C8.17787 12.6405 8.17213 12.7064 8.11371 12.7343C8.05394 12.7628 6.31896 12.7735 6.18046 12.7462Z" fill="#EDEDED"/>
<path fill-rule="evenodd" clip-rule="evenodd" d="M6.10201 10.2613C6.07242 10.1218 6.09366 8.84144 6.12605 8.81256C6.16815 8.77501 8.07746 8.7727 8.13228 8.81013C8.19562 8.85337 8.19731 10.255 8.13409 10.3113C8.10245 10.3396 7.82356 10.3501 7.10575 10.3501H6.12083L6.10201 10.2613Z" fill="#EDEDED"/>
<path fill-rule="evenodd" clip-rule="evenodd" d="M6.168 7.93568C6.09569 7.92645 6.0937 7.90739 6.09282 7.21622C6.09206 6.6184 6.09998 6.509 6.14292 6.5237C6.17097 6.5333 6.61593 6.54116 7.13172 6.54116H8.06952V7.24735V7.95353L7.1559 7.94935C6.65341 7.94704 6.20885 7.94089 6.168 7.93568Z" fill="#EDEDED"/>
<path fill-rule="evenodd" clip-rule="evenodd" d="M9.23385 8.08421C9.20263 8.05636 9.19043 7.83968 9.19043 7.31304C9.19043 6.67493 9.1978 6.57808 9.24766 6.56101C9.34812 6.52663 11.2105 6.53867 11.2349 6.57386C11.253 6.59995 11.2712 7.85134 11.2567 8.06646C11.2531 8.11879 11.1802 8.12294 10.2651 8.12294C9.54502 8.12294 9.2655 8.11244 9.23385 8.08421Z" fill="#EDEDED"/>
<path fill-rule="evenodd" clip-rule="evenodd" d="M9.21455 10.425C9.20128 10.4132 9.19043 10.0674 9.19043 9.65659C9.19043 9.07616 9.20145 8.89622 9.23986 8.84936C9.28566 8.79349 9.35659 8.78867 10.2078 8.78371C10.7129 8.78076 11.1547 8.7911 11.1895 8.80669C11.3022 8.85712 11.2677 8.97692 11.1262 9.02642C11.0566 9.0508 10.9996 9.07902 10.9996 9.08912C10.9996 9.09923 10.9467 9.12772 10.882 9.15244C10.8173 9.17717 10.6965 9.24607 10.6136 9.30556C10.5306 9.36506 10.451 9.41373 10.4366 9.41373C10.4222 9.41373 10.3639 9.45717 10.307 9.51027C10.2501 9.56336 10.2036 9.59752 10.2036 9.58617C10.2036 9.57482 10.1546 9.61127 10.0947 9.66715C10.0348 9.72304 9.96969 9.76877 9.94996 9.76877C9.93023 9.76877 9.91409 9.78088 9.91409 9.79568C9.91409 9.81049 9.80744 9.92204 9.67708 10.0436C9.54673 10.1651 9.41296 10.3055 9.37982 10.3556C9.32106 10.4443 9.26334 10.4686 9.21455 10.425Z" fill="#EDEDED"/>
<path fill-rule="evenodd" clip-rule="evenodd" d="M12.2524 8.07197C12.2404 8.04389 12.2305 7.68805 12.2305 7.28121V6.5415H13.2617H14.2929V7.28154C14.2929 7.91127 14.2844 8.02914 14.236 8.0723C14.1872 8.11584 14.0444 8.12302 13.2268 8.12302C12.3917 8.12302 12.2717 8.11673 12.2524 8.07197Z" fill="#EDEDED"/>
<path fill-rule="evenodd" clip-rule="evenodd" d="M13.0433 17.4868C13.0308 17.4757 12.9934 17.4655 12.9603 17.4641C12.5179 17.4464 11.6354 17.1538 11.1089 16.8503C10.5634 16.5358 10.0578 16.0914 9.67224 15.5873C9.58939 15.4789 9.30999 15.0008 9.21444 14.8038C9.09583 14.5592 8.92452 13.9398 8.93126 13.7798C8.93371 13.7217 8.924 13.6741 8.90968 13.6741C8.87684 13.6741 8.88027 12.7952 8.9133 12.7475C8.92673 12.7282 8.93539 12.6782 8.93255 12.6365C8.9297 12.5947 8.95351 12.4517 8.98545 12.3185C9.25588 11.1913 10.0205 10.2105 11.127 9.57154C11.2663 9.49109 11.4535 9.39501 11.5431 9.35802C11.8137 9.24623 12.0646 9.15092 12.122 9.13805C12.1519 9.13137 12.2659 9.10254 12.3753 9.07399C13.5055 8.77919 14.8026 8.89021 15.8489 9.3713C16.4243 9.63588 16.6843 9.80944 17.1533 10.2419C17.4929 10.5551 17.6591 10.7494 17.8388 11.0436C17.9038 11.1501 17.9684 11.2518 17.9823 11.2696C18.0653 11.3759 18.2955 11.9246 18.3614 12.1733C18.573 12.9723 18.5423 13.7882 18.2735 14.5133C18.1545 14.8343 17.8855 15.3778 17.8182 15.4332C17.7966 15.4509 17.7234 15.5453 17.6554 15.6429C17.4945 15.8742 17.4152 15.9569 17.0278 16.2974C16.7515 16.5403 16.2941 16.8694 16.233 16.8694C16.2225 16.8694 16.157 16.9039 16.0875 16.9459C15.9284 17.0422 15.2465 17.3099 15.0432 17.3558C14.9589 17.3749 14.8086 17.4043 14.7091 17.4214C14.6096 17.4384 14.4793 17.4609 14.4196 17.4714C14.268 17.4982 13.071 17.5115 13.0433 17.4868ZM14.4014 16.8183C14.6295 16.7885 15.1121 16.6494 15.3449 16.5462C15.9677 16.2704 16.1557 16.1511 16.5906 15.7563C17.1844 15.2172 17.4885 14.7175 17.6733 13.9771C17.825 13.369 17.7831 12.6245 17.5667 12.0852C17.5363 12.0094 17.5077 11.9338 17.5033 11.9171C17.4799 11.8299 17.1052 11.2037 17.0263 11.12C16.9757 11.0664 16.9344 11.0115 16.9344 10.998C16.9344 10.9506 16.2949 10.3899 16.1361 10.298C16.0478 10.2469 15.9674 10.1968 15.9574 10.1867C15.9011 10.1293 15.4647 9.92124 15.2157 9.83298C14.6667 9.63841 14.3048 9.57883 13.6699 9.57846C13.3415 9.57827 13.092 9.59136 13.0794 9.60941C13.0675 9.62661 13.0423 9.63215 13.0234 9.62172C13.0045 9.6113 12.9289 9.62045 12.8555 9.64206C12.7821 9.66368 12.6969 9.68357 12.6662 9.68625C12.5955 9.69246 12.149 9.82007 12.0615 9.85914C11.9952 9.88871 11.8269 9.96693 11.6774 10.0376C10.9523 10.3806 10.192 11.1666 9.89248 11.8828C9.76242 12.1939 9.70837 12.3634 9.67647 12.5606C9.59248 13.0797 9.58471 13.3338 9.6429 13.658C9.65246 13.7112 9.6694 13.8129 9.68054 13.8839C9.70253 14.0241 9.8254 14.4254 9.87817 14.5294C9.89618 14.5649 9.94451 14.6625 9.98558 14.7462C10.082 14.9427 10.2532 15.1916 10.4576 15.4326C10.6301 15.6359 10.9075 15.9012 10.9478 15.9012C10.961 15.9012 11.0042 15.9379 11.0438 15.9827C11.124 16.0737 11.6069 16.3625 11.8902 16.4889C12.2389 16.6446 12.789 16.7983 13.099 16.8268C13.2084 16.8368 13.3061 16.8521 13.3161 16.8608C13.3384 16.8802 14.1786 16.8473 14.4014 16.8183Z" fill="#EDEDED"/>
<path fill-rule="evenodd" clip-rule="evenodd" d="M11.8531 10.823C11.7446 10.7262 11.735 10.6246 11.8235 10.5104C11.9607 10.3334 12.3027 10.4349 12.3027 10.6525C12.3027 10.7949 12.2368 10.864 12.0791 10.8868C11.9682 10.9029 11.9308 10.8923 11.8531 10.823Z" fill="#EDEDED"/>
<path fill-rule="evenodd" clip-rule="evenodd" d="M13.5448 10.5062C13.4186 10.4507 13.3845 10.2382 13.4783 10.0918C13.5068 10.0475 13.5306 10.0228 13.5313 10.037C13.532 10.0511 13.5599 10.0492 13.5932 10.0325C13.6864 9.98598 13.8528 10.0533 13.9166 10.1634C14.0468 10.3879 13.7978 10.6175 13.5448 10.5062Z" fill="#EDEDED"/>
<path fill-rule="evenodd" clip-rule="evenodd" d="M15.2244 10.8649C15.1896 10.8461 15.1611 10.8415 15.1611 10.8546C15.1611 10.8678 15.1396 10.8522 15.1132 10.8201C15.0806 10.7803 15.073 10.7166 15.0895 10.62C15.1188 10.4474 15.1212 10.4452 15.2938 10.4247C15.6532 10.3822 15.7459 10.8268 15.3894 10.8831C15.3335 10.8919 15.2593 10.8838 15.2244 10.8649Z" fill="#EDEDED"/>
<path fill-rule="evenodd" clip-rule="evenodd" d="M10.6969 11.9544C10.6696 11.9412 10.6472 11.9345 10.6472 11.9396C10.6472 11.9446 10.636 11.9395 10.6223 11.9281C10.6086 11.9167 10.6014 11.8982 10.6062 11.8871C10.611 11.8759 10.6059 11.8668 10.5949 11.8668C10.5838 11.8668 10.5748 11.8559 10.5748 11.8426C10.5748 11.8293 10.5681 11.8184 10.56 11.8184C10.538 11.8184 10.5638 11.6715 10.594 11.6248C10.6481 11.541 10.6884 11.5118 10.7499 11.5118C10.7949 11.5118 10.8102 11.5047 10.8106 11.4836C10.8111 11.4567 10.812 11.4567 10.8296 11.4836C10.8397 11.4991 10.8699 11.512 10.8969 11.5123C10.9545 11.5129 10.9844 11.5319 11.0505 11.6101C11.1229 11.6959 11.1193 11.8002 11.0407 11.8919C10.9973 11.9426 10.9653 11.963 10.9186 11.97C10.8178 11.985 10.7504 11.9803 10.6969 11.9544Z" fill="#EDEDED"/>
<path fill-rule="evenodd" clip-rule="evenodd" d="M10.2132 13.4346L10.1318 13.3641V13.2458C10.1318 13.1331 10.1348 13.1248 10.1934 13.0709C10.2485 13.0202 10.315 12.9932 10.3942 12.9894C10.4724 12.9857 10.6102 13.0582 10.6109 13.1036C10.6111 13.1136 10.6235 13.1308 10.6384 13.1419C10.6678 13.1636 10.6767 13.2952 10.6498 13.31C10.6411 13.3148 10.6291 13.3408 10.623 13.3678C10.617 13.3949 10.5976 13.4215 10.58 13.4271C10.5624 13.4327 10.5333 13.4485 10.5153 13.4623C10.4974 13.4761 10.4404 13.4913 10.3887 13.4961C10.297 13.5047 10.2926 13.5032 10.2132 13.4346Z" fill="#EDEDED"/>
<path fill-rule="evenodd" clip-rule="evenodd" d="M10.6492 14.8706C10.5736 14.8031 10.5456 14.7244 10.5661 14.637C10.5802 14.577 10.694 14.4649 10.7409 14.4649C10.7588 14.4649 10.7734 14.4576 10.7734 14.4488C10.7734 14.4399 10.7937 14.4326 10.8186 14.4326C10.8435 14.4326 10.8639 14.439 10.8639 14.4467C10.8639 14.4545 10.8888 14.4653 10.9192 14.4707C10.978 14.4812 11.0163 14.5085 11.0673 14.5763C11.1022 14.6228 11.1128 14.8038 11.0805 14.8038C11.0703 14.8038 11.0542 14.8219 11.0448 14.8441C11.0353 14.8663 11.0162 14.8845 11.0022 14.8845C10.9882 14.8845 10.9667 14.8954 10.9543 14.9087C10.939 14.9252 10.8979 14.9329 10.8255 14.9329C10.7262 14.9329 10.7145 14.9288 10.6492 14.8706Z" fill="#EDEDED"/>
<path fill-rule="evenodd" clip-rule="evenodd" d="M11.8814 15.9736C11.7667 15.8792 11.7404 15.7803 11.8015 15.6734C11.8572 15.576 11.9 15.5463 11.9999 15.5357C12.0764 15.5276 12.103 15.5323 12.1602 15.5638C12.2786 15.6291 12.2972 15.6545 12.3071 15.7646C12.3161 15.8646 12.3153 15.8668 12.2452 15.9338C12.1798 15.9963 12.165 16.0025 12.0574 16.0121C11.9453 16.022 11.9383 16.0205 11.8814 15.9736Z" fill="#EDEDED"/>
<path fill-rule="evenodd" clip-rule="evenodd" d="M13.6321 16.4171C13.6321 16.4084 13.6185 16.4013 13.6018 16.4013C13.567 16.4013 13.4512 16.295 13.4512 16.2631C13.4512 16.2514 13.4431 16.2374 13.4331 16.2319C13.4232 16.2264 13.415 16.1963 13.415 16.165C13.415 16.0955 13.5059 15.9753 13.5808 15.9457C13.609 15.9346 13.6321 15.9212 13.6321 15.916C13.6321 15.9109 13.6728 15.9141 13.7226 15.9232C13.7723 15.9323 13.8131 15.9455 13.8131 15.9527C13.8131 15.9598 13.8253 15.9656 13.8402 15.9656C13.8551 15.9656 13.8673 15.9772 13.8673 15.9913C13.8673 16.0055 13.8836 16.0208 13.9035 16.0255C13.9234 16.0301 13.9397 16.0472 13.9397 16.0634C13.9397 16.0796 13.9478 16.0973 13.9578 16.1028C13.9677 16.1083 13.9759 16.1455 13.9759 16.1855C13.9759 16.251 13.9675 16.2655 13.8922 16.3298C13.8426 16.3722 13.7915 16.4013 13.7667 16.4013C13.7438 16.4013 13.7041 16.4084 13.6785 16.4171C13.6484 16.4273 13.6321 16.4273 13.6321 16.4171Z" fill="#EDEDED"/>
<path fill-rule="evenodd" clip-rule="evenodd" d="M15.2243 16.0032C15.1995 15.9987 15.1726 15.9848 15.1646 15.9723C15.1567 15.9599 15.1404 15.9497 15.1285 15.9497C15.1165 15.9497 15.1055 15.9299 15.1039 15.9058C15.1023 15.8816 15.0921 15.8593 15.0813 15.856C15.0524 15.8474 15.0582 15.7209 15.0892 15.6843C15.1038 15.6671 15.116 15.6417 15.1162 15.6279C15.1164 15.614 15.1469 15.5846 15.184 15.5624C15.2387 15.5297 15.2695 15.5229 15.3466 15.5269C15.4333 15.5313 15.4494 15.5388 15.5307 15.6112C15.6582 15.725 15.6644 15.8225 15.5513 15.9362C15.4882 15.9997 15.4779 16.0039 15.3769 16.0076C15.3179 16.0097 15.2492 16.0078 15.2243 16.0032Z" fill="#EDEDED"/>
<path fill-rule="evenodd" clip-rule="evenodd" d="M16.4547 14.9177C16.4547 14.9092 16.4262 14.8975 16.3915 14.8917C16.3567 14.8859 16.3327 14.8748 16.338 14.8672C16.3433 14.8595 16.3341 14.8349 16.3176 14.8124C16.2952 14.782 16.2895 14.7458 16.2949 14.6703C16.301 14.5838 16.3102 14.5613 16.3577 14.517C16.3883 14.4884 16.4262 14.4651 16.442 14.4651C16.4577 14.4651 16.4756 14.4578 16.4818 14.4489C16.4956 14.429 16.5994 14.4274 16.5994 14.4471C16.5994 14.455 16.6279 14.4662 16.6627 14.4721C16.6975 14.4779 16.726 14.4906 16.726 14.5003C16.726 14.5099 16.747 14.5352 16.7727 14.5565C16.8126 14.5894 16.8196 14.6093 16.8207 14.6924C16.8219 14.7879 16.8204 14.791 16.7369 14.8614C16.6577 14.9281 16.6451 14.9331 16.5532 14.9331C16.499 14.9331 16.4547 14.9261 16.4547 14.9177Z" fill="#EDEDED"/>
<path fill-rule="evenodd" clip-rule="evenodd" d="M16.9247 13.4269C16.8996 13.4152 16.8679 13.4089 16.8544 13.413C16.8405 13.4171 16.8348 13.4129 16.8415 13.4034C16.8479 13.3941 16.8392 13.3739 16.822 13.3586C16.797 13.3363 16.7916 13.3057 16.7947 13.204C16.7989 13.0688 16.8083 13.0521 16.9147 12.9905C16.9711 12.9579 17.1281 12.9504 17.1391 12.9799C17.1425 12.989 17.1551 12.9965 17.1669 12.9965C17.2038 12.9965 17.2502 13.0583 17.2734 13.1381C17.2855 13.1801 17.3038 13.2197 17.3139 13.2262C17.3255 13.2338 17.3241 13.2382 17.3099 13.2383C17.2976 13.2385 17.2786 13.2703 17.2677 13.309C17.2518 13.3653 17.234 13.3863 17.179 13.4139C17.1012 13.4529 16.9925 13.4585 16.9247 13.4269Z" fill="#EDEDED"/>
<path fill-rule="evenodd" clip-rule="evenodd" d="M16.4977 11.9824C16.5064 11.9699 16.4953 11.9635 16.4645 11.9635C16.4391 11.9635 16.4182 11.9562 16.4182 11.9474C16.4182 11.9385 16.4078 11.9312 16.3951 11.9312C16.3586 11.9312 16.3102 11.8709 16.2941 11.8055C16.286 11.7726 16.2699 11.7475 16.2583 11.7497C16.2468 11.7519 16.2373 11.7431 16.2373 11.73C16.2373 11.7167 16.248 11.71 16.2619 11.7147C16.2794 11.7207 16.2894 11.7043 16.2963 11.6585C16.3069 11.5877 16.381 11.5116 16.4392 11.5116C16.4578 11.5116 16.4885 11.503 16.5074 11.4925C16.5344 11.4774 16.5587 11.4783 16.62 11.4963C16.703 11.5208 16.7338 11.5424 16.7842 11.6117C16.8179 11.658 16.833 11.8141 16.8056 11.8318C16.7965 11.8377 16.7803 11.8567 16.7695 11.8741C16.7474 11.9097 16.6687 11.9528 16.5963 11.9688C16.5699 11.9747 16.5339 11.9844 16.5164 11.9904C16.4947 11.9978 16.4888 11.9953 16.4977 11.9824Z" fill="#EDEDED"/>
<path d="M12.0584 10.9103C12.2245 10.9103 12.3591 10.7979 12.3591 10.6593C12.3591 10.5206 12.2245 10.4082 12.0584 10.4082C11.8924 10.4082 11.7578 10.5206 11.7578 10.6593C11.7578 10.7979 11.8924 10.9103 12.0584 10.9103Z" fill="#EDEDED"/>
<path d="M10.8299 11.9943C10.996 11.9943 11.1305 11.8819 11.1305 11.7432C11.1305 11.6046 10.996 11.4922 10.8299 11.4922C10.6639 11.4922 10.5293 11.6046 10.5293 11.7432C10.5293 11.8819 10.6639 11.9943 10.8299 11.9943Z" fill="#EDEDED"/>
<path d="M10.3827 13.5123C10.5487 13.5123 10.6833 13.4 10.6833 13.2613C10.6833 13.1227 10.5487 13.0103 10.3827 13.0103C10.2166 13.0103 10.082 13.1227 10.082 13.2613C10.082 13.4 10.2166 13.5123 10.3827 13.5123Z" fill="#EDEDED"/>
<path d="M10.8436 14.9386C11.0096 14.9386 11.1442 14.8262 11.1442 14.6876C11.1442 14.5489 11.0096 14.4365 10.8436 14.4365C10.6776 14.4365 10.543 14.5489 10.543 14.6876C10.543 14.8262 10.6776 14.9386 10.8436 14.9386Z" fill="#EDEDED"/>
<path d="M12.0584 16.0456C12.2245 16.0456 12.3591 15.9332 12.3591 15.7945C12.3591 15.6559 12.2245 15.5435 12.0584 15.5435C11.8924 15.5435 11.7578 15.6559 11.7578 15.7945C11.7578 15.9332 11.8924 16.0456 12.0584 16.0456Z" fill="#EDEDED"/>
<path d="M13.6834 16.422C13.8495 16.422 13.9841 16.3096 13.9841 16.171C13.9841 16.0323 13.8495 15.9199 13.6834 15.9199C13.5174 15.9199 13.3828 16.0323 13.3828 16.171C13.3828 16.3096 13.5174 16.422 13.6834 16.422Z" fill="#EDEDED"/>
<path d="M15.3465 16.0114C15.5126 16.0114 15.6472 15.899 15.6472 15.7603C15.6472 15.6217 15.5126 15.5093 15.3465 15.5093C15.1805 15.5093 15.0459 15.6217 15.0459 15.7603C15.0459 15.899 15.1805 16.0114 15.3465 16.0114Z" fill="#EDEDED"/>
<path d="M16.5868 14.9386C16.7528 14.9386 16.8874 14.8262 16.8874 14.6876C16.8874 14.5489 16.7528 14.4365 16.5868 14.4365C16.4207 14.4365 16.2861 14.5489 16.2861 14.6876C16.2861 14.8262 16.4207 14.9386 16.5868 14.9386Z" fill="#EDEDED"/>
<path d="M17.0604 13.4552C17.2264 13.4552 17.361 13.3428 17.361 13.2042C17.361 13.0655 17.2264 12.9531 17.0604 12.9531C16.8944 12.9531 16.7598 13.0655 16.7598 13.2042C16.7598 13.3428 16.8944 13.4552 17.0604 13.4552Z" fill="#EDEDED"/>
<path d="M16.5487 11.9718C16.7147 11.9718 16.8493 11.8594 16.8493 11.7208C16.8493 11.5821 16.7147 11.4697 16.5487 11.4697C16.3826 11.4697 16.248 11.5821 16.248 11.7208C16.248 11.8594 16.3826 11.9718 16.5487 11.9718Z" fill="#EDEDED"/>
<path d="M15.3338 10.8991C15.4999 10.8991 15.6345 10.7867 15.6345 10.648C15.6345 10.5094 15.4999 10.397 15.3338 10.397C15.1678 10.397 15.0332 10.5094 15.0332 10.648C15.0332 10.7867 15.1678 10.8991 15.3338 10.8991Z" fill="#EDEDED"/>
<path d="M13.6834 10.4997C13.8495 10.4997 13.9841 10.3873 13.9841 10.2486C13.9841 10.11 13.8495 9.99756 13.6834 9.99756C13.5174 9.99756 13.3828 10.11 13.3828 10.2486C13.3828 10.3873 13.5174 10.4997 13.6834 10.4997Z" fill="#EDEDED"/>
<path d="M14.0217 11.7131C14.0217 11.4778 13.8727 11.2871 13.6891 11.2871C13.5054 11.2871 13.3564 11.4778 13.3564 11.7131V13.5086C13.3564 13.7438 13.5054 13.9345 13.6891 13.9345C13.8727 13.9345 14.0217 13.7438 14.0217 13.5086V11.7131Z" fill="#EDEDED"/>
<path d="M15.3837 13.8658C15.6771 13.8658 15.915 13.733 15.915 13.5692C15.915 13.4053 15.6771 13.2725 15.3837 13.2725H13.939C13.6456 13.2725 13.4077 13.4053 13.4077 13.5692C13.4077 13.733 13.6456 13.8658 13.939 13.8658H15.3837Z" fill="#EDEDED"/>
<path d="M13.3635 13.8317C13.6991 13.8317 13.9712 13.7117 13.9712 13.5636C13.9712 13.4155 13.6991 13.2954 13.3635 13.2954C13.0279 13.2954 12.7559 13.4155 12.7559 13.5636C12.7559 13.7117 13.0279 13.8317 13.3635 13.8317Z" fill="#EDEDED"/>
<path d="M13.9835 13.42C13.9835 13.1306 13.8374 12.896 13.6573 12.896C13.4771 12.896 13.3311 13.1306 13.3311 13.42V13.9582C13.3311 14.2476 13.4771 14.4822 13.6573 14.4822C13.8374 14.4822 13.9835 14.2476 13.9835 13.9582V13.42Z" fill="#EDEDED"/>
</svg>
