<svg width="26" height="25" viewBox="0 0 26 25" fill="none" xmlns="http://www.w3.org/2000/svg">
<g clip-path="url(#clip0_246_1400)">
<path fill-rule="evenodd" clip-rule="evenodd" d="M16.5142 12.7048C17.7616 12.4566 19.0398 12.4166 20.3088 12.4035C20.2902 13.9923 20.3862 15.6265 19.9165 17.1661C19.8014 17.5558 19.5905 17.911 19.3027 18.1996C19.015 18.4883 18.6596 18.7013 18.2684 18.8195C16.7115 19.296 15.0572 19.1869 13.4485 19.2122C13.5228 17.7656 13.4485 16.2737 13.9244 14.8832C14.3097 13.7564 15.3512 12.9285 16.5142 12.7048ZM6.38473 12.4012C7.57248 12.4089 8.76564 12.465 9.93946 12.6549C11.0986 12.8317 12.2221 13.5388 12.6794 14.6434C13.2884 16.0884 13.1367 17.6895 13.2628 19.2161C11.8739 19.2007 10.4695 19.2484 9.09527 18.9955C8.3153 18.8471 7.48736 18.5066 7.07726 17.7887C6.54568 16.8556 6.48687 15.7549 6.42497 14.7079C6.41569 13.9385 6.36694 13.1706 6.38473 12.402M13.4524 5.38345C15.0572 5.40881 16.71 5.29736 18.2637 5.77546C18.6566 5.8922 19.0137 6.10492 19.3024 6.39415C19.5912 6.68339 19.8023 7.03992 19.9165 7.43113C20.3854 8.96997 20.2902 10.6041 20.3088 12.1929C18.9725 12.1837 17.6176 12.1606 16.3146 11.8447C15.1895 11.5772 14.2401 10.7125 13.8904 9.61487C13.457 8.24667 13.5313 6.79699 13.4524 5.38345ZM8.64338 5.71012C10.1461 5.3158 11.7191 5.40804 13.2582 5.38037C13.1676 6.82774 13.2535 8.31969 12.7722 9.71018C12.5835 10.2364 12.2657 10.7077 11.8475 11.0813C11.4294 11.4549 10.9241 11.7192 10.3774 11.8501C9.07206 12.1591 7.7195 12.1845 6.38473 12.1937C6.42729 10.5772 6.31123 8.90848 6.82192 7.34812C7.07494 6.5149 7.80925 5.91305 8.64338 5.71089" fill="white"/>
</g>
<defs>
<clipPath id="clip0_246_1400">
<rect width="24.7608" height="24.5968" fill="white" transform="translate(0.964844)"/>
</clipPath>
</defs>
</svg>
