<svg width="25" height="25" viewBox="0 0 25 25" fill="none" xmlns="http://www.w3.org/2000/svg">
<path d="M13.2168 18.4477C11.1934 18.4477 8.98965 18.3862 6.66833 18.2647C5.2972 18.1925 4.23326 17.1717 4.0816 15.782C3.82827 13.4662 3.82827 11.13 4.0816 8.81417C4.23326 7.43598 5.29565 6.41522 6.666 6.33143C10.7453 6.08809 14.8356 6.08809 18.9149 6.33143C20.2999 6.41291 21.3391 7.40985 21.4993 8.81341C21.7515 11.0348 21.7523 13.3784 21.4993 15.7805C21.3538 17.1694 20.3162 18.1679 18.918 18.2647C17.0202 18.3907 15.1187 18.4517 13.2168 18.4477ZM12.744 6.80876C10.7268 6.80876 8.69639 6.87026 6.70856 6.99094C5.66164 7.05473 4.87936 7.8157 4.76252 8.88412C4.51438 11.1534 4.51438 13.4427 4.76252 15.712C4.87936 16.7897 5.6601 17.5507 6.70547 17.606C9.01441 17.7259 11.2057 17.7874 13.2168 17.7874C15.2247 17.7874 17.1267 17.7259 18.87 17.606C19.9246 17.533 20.7085 16.7728 20.8199 15.7136C21.0675 13.3577 21.0675 11.0609 20.8199 8.88566C20.6976 7.81339 19.9154 7.05243 18.8739 6.99094C16.8328 6.87033 14.7886 6.80958 12.744 6.80876ZM11.0494 9.96023V14.4907L15.5551 12.2408L11.0502 9.95946L11.0494 9.96023Z" fill="white"/>
</svg>
