<svg width="26" height="24" viewBox="0 0 26 24" fill="none" xmlns="http://www.w3.org/2000/svg">
<path fill-rule="evenodd" clip-rule="evenodd" d="M1.86522 20.0567C1.35984 19.9792 0.915302 19.6864 0.644168 19.2525L0.534815 19.0774L0.509652 10.773C0.495812 6.20561 0.497 2.46863 0.512292 2.46863C0.527583 2.46863 0.58036 2.36725 0.629573 2.24335C0.678786 2.11944 0.751201 1.9939 0.790495 1.96437C0.82979 1.93484 0.86194 1.89269 0.86194 1.8707C0.86194 1.81706 1.05095 1.64845 1.11107 1.64845C1.13738 1.64845 1.17701 1.6217 1.19915 1.58901C1.22128 1.55632 1.36395 1.47942 1.51619 1.41814C1.78281 1.3108 1.84062 1.30618 3.08891 1.29251L4.38482 1.27832L4.38687 1.54312C4.38799 1.68877 4.38862 2.27954 4.38827 2.85595C4.3876 3.94428 4.40657 4.07163 4.61578 4.38301C4.77201 4.61555 5.17178 4.9448 5.24687 4.90278C5.27098 4.88929 5.29071 4.89748 5.29071 4.92098C5.29071 5.02973 5.63567 5.08868 6.27208 5.08868C6.89466 5.08868 6.93851 5.08252 7.17796 4.9614C7.57354 4.76132 7.87276 4.41313 7.91925 4.0988C7.92926 4.03113 7.9534 3.96131 7.9729 3.94366C7.9924 3.926 8.00836 3.32034 8.00836 2.59774V1.28392H9.0149H10.0214V2.61355C10.0214 3.88185 10.0265 3.9533 10.1311 4.16279C10.1914 4.28358 10.2593 4.38241 10.282 4.38241C10.3048 4.38241 10.3234 4.41196 10.3234 4.44809C10.3234 4.51875 10.7901 4.86117 11.0783 5.00199C11.2241 5.0732 11.363 5.0881 11.8835 5.08837C12.5779 5.08871 12.6682 5.06275 13.0781 4.74496C13.5678 4.36536 13.6408 4.07256 13.6432 2.48003L13.645 1.28392H14.8006H15.9562L15.9594 2.57116C15.9629 3.95014 15.9742 4.09066 16.1016 4.33684C16.2063 4.53902 16.5677 4.8593 16.8356 4.98733C17.0193 5.07508 17.1224 5.0861 17.7718 5.08731C18.3796 5.08845 18.5436 5.07377 18.7531 4.99945C19.0705 4.88693 19.3319 4.75024 19.3319 4.69687C19.3319 4.67428 19.3666 4.6558 19.409 4.6558C19.4514 4.6558 19.5012 4.61992 19.5197 4.57606C19.5382 4.5322 19.5941 4.45657 19.6439 4.40799C19.6937 4.35941 19.7374 4.29277 19.7408 4.2599C19.7443 4.22703 19.7528 4.17964 19.7597 4.15458C19.7666 4.12952 19.7751 3.47337 19.7786 2.69647L19.7848 1.28392H20.8076C21.6217 1.28392 21.8809 1.29918 22.0783 1.35873C22.2148 1.39987 22.3547 1.45364 22.3893 1.47822C22.4239 1.5028 22.4522 1.50886 22.4522 1.49169C22.4522 1.41744 22.9142 1.91776 23.0177 2.10411L23.1316 2.30916L23.1439 7.38976C23.1507 10.1841 23.1393 12.4489 23.1187 12.4226C23.0669 12.3565 22.7639 12.1679 22.6894 12.1553C22.6558 12.1497 22.4723 12.0798 22.2816 12.0001C22.091 11.9204 21.9143 11.8552 21.8889 11.8552C21.8615 11.8552 21.8468 10.8189 21.8526 9.29214L21.8624 6.72905L11.9283 6.7166C6.46462 6.70974 1.94334 6.71526 1.88106 6.72886L1.76782 6.75357V12.7875C1.76782 17.5585 1.78096 18.8288 1.8306 18.8566C1.86512 18.8759 4.02603 18.8925 6.63262 18.8934C9.23921 18.8944 11.3889 18.9106 11.4096 18.9294C11.4304 18.9482 11.4531 19.0097 11.46 19.0661C11.4669 19.1224 11.4757 19.1686 11.4796 19.1686C11.4835 19.1686 11.4963 19.2521 11.5081 19.3542C11.5198 19.4563 11.5638 19.628 11.6058 19.7358C11.6478 19.8437 11.6822 19.9703 11.6822 20.0173C11.6822 20.1002 11.5436 20.1025 6.88858 20.0973C4.25208 20.0944 1.99157 20.0761 1.86522 20.0567Z" fill="#35518C"/>
<path fill-rule="evenodd" clip-rule="evenodd" d="M5.74875 4.4329C5.54004 4.39958 5.40832 4.30345 5.13982 3.98848C5.08323 3.92209 5.07997 0.509633 5.1365 0.509633C5.15949 0.509633 5.20511 0.451027 5.23788 0.379396C5.3487 0.137168 5.54976 0.0495997 6.07497 0.0148279C6.33587 -0.00244505 6.54933 -0.000703333 6.54933 0.0186983C6.54933 0.0380999 6.58588 0.0539735 6.63055 0.0539735C6.67522 0.0539735 6.79876 0.0982398 6.90508 0.152343C7.24352 0.324561 7.25391 0.38527 7.25391 2.1908C7.25391 3.06431 7.23946 3.84438 7.22181 3.9243C7.20416 4.00422 7.10706 4.14986 7.00604 4.24794C6.82535 4.42338 6.81542 4.42663 6.39647 4.4473C6.16222 4.45886 5.87075 4.45238 5.74875 4.4329Z" fill="#35518C"/>
<path fill-rule="evenodd" clip-rule="evenodd" d="M11.1036 4.35124C10.7494 4.13333 10.7517 4.14636 10.7441 2.24097L10.7373 0.532244L10.8572 0.362601C10.9231 0.269297 11.0508 0.158041 11.1408 0.115366C11.3449 0.0186094 12.033 -0.0204651 12.3157 0.0486504C12.5272 0.100369 12.7388 0.233867 12.7388 0.315571C12.7388 0.340889 12.7738 0.387905 12.8166 0.42005C12.8594 0.452195 12.8827 0.505967 12.8685 0.539544C12.8543 0.573121 12.8589 0.600576 12.8788 0.600557C12.8987 0.600537 12.9036 1.36597 12.8898 2.30153L12.8646 4.00253L12.7213 4.1726C12.5269 4.40317 12.3967 4.44239 11.7951 4.45145C11.3274 4.45849 11.2627 4.44911 11.1036 4.35124Z" fill="#35518C"/>
<path fill-rule="evenodd" clip-rule="evenodd" d="M17.4401 4.4372C17.2765 4.42625 17.1934 4.38579 17.0375 4.24123L16.841 4.05906V2.26475C16.841 0.218076 16.8195 0.321397 17.2915 0.0988337C17.5139 -0.00601045 17.5698 -0.0131362 17.969 0.0124218C18.5613 0.0503446 18.7315 0.141723 18.8769 0.499699C18.954 0.689717 18.9629 0.89457 18.9543 2.28635C18.9479 3.32699 18.9255 3.90074 18.888 3.98368C18.8569 4.0526 18.8443 4.10899 18.8601 4.10899C18.9597 4.10899 18.4412 4.42916 18.3334 4.43418C18.021 4.44873 17.632 4.45004 17.4401 4.4372Z" fill="#35518C"/>
<path fill-rule="evenodd" clip-rule="evenodd" d="M3.84258 9.65673L3.85605 8.55176H5.26521H6.67436L6.68858 9.55421C6.6964 10.1056 6.69031 10.6028 6.67504 10.6592L6.64728 10.7617H5.23819H3.8291L3.84258 9.65673Z" fill="#35518C"/>
<path fill-rule="evenodd" clip-rule="evenodd" d="M3.86539 13.8762C3.8465 13.8591 3.83105 13.3667 3.83105 12.7819C3.83105 11.8016 3.83792 11.7183 3.91913 11.7139C3.96757 11.7112 4.59169 11.7054 5.30606 11.701C6.238 11.6953 6.61858 11.7079 6.65326 11.7458C6.68197 11.7771 6.69611 12.222 6.68807 12.8408L6.67452 13.8831L5.28712 13.8952C4.52405 13.9018 3.88427 13.8933 3.86539 13.8762Z" fill="#35518C"/>
<path fill-rule="evenodd" clip-rule="evenodd" d="M3.88911 17.2818C3.84536 17.2573 3.83315 16.9651 3.84309 16.1809L3.85662 15.1133H5.26577H6.67493L6.68846 16.1809C6.69837 16.9626 6.68611 17.2573 6.64269 17.2816C6.56509 17.325 3.96669 17.3252 3.88911 17.2818Z" fill="#35518C"/>
<path fill-rule="evenodd" clip-rule="evenodd" d="M8.4005 17.2888C8.35336 17.2794 8.30465 17.2371 8.29227 17.1948C8.27275 17.1282 8.28107 15.4761 8.30235 15.1929L8.31006 15.0903H9.71383C10.9475 15.0903 11.1213 15.0991 11.1481 15.1624C11.1649 15.2021 11.1787 15.6832 11.1787 16.2316C11.1787 17.1396 11.1707 17.2326 11.0895 17.272C11.0063 17.3122 8.59314 17.3274 8.4005 17.2888Z" fill="#35518C"/>
<path fill-rule="evenodd" clip-rule="evenodd" d="M8.2921 13.7806C8.25094 13.5836 8.28048 11.7761 8.32553 11.7353C8.3841 11.6823 11.0398 11.679 11.116 11.7319C11.2041 11.7929 11.2064 13.7716 11.1185 13.8512C11.0745 13.8911 10.6866 13.9059 9.6882 13.9059H8.31828L8.2921 13.7806Z" fill="#35518C"/>
<path fill-rule="evenodd" clip-rule="evenodd" d="M8.38296 10.4976C8.28238 10.4845 8.27961 10.4576 8.27839 9.48187C8.27733 8.63789 8.28834 8.48344 8.34807 8.50419C8.38709 8.51775 9.00598 8.52884 9.72339 8.52884H11.0278V9.52581V10.5228L9.75702 10.5169C9.05811 10.5136 8.43978 10.5049 8.38296 10.4976Z" fill="#35518C"/>
<path fill-rule="evenodd" clip-rule="evenodd" d="M12.6483 10.7071C12.6049 10.6678 12.5879 10.3619 12.5879 9.61844C12.5879 8.71758 12.5981 8.58085 12.6675 8.55676C12.8072 8.50821 15.3976 8.52521 15.4315 8.57489C15.4567 8.61172 15.4821 10.3784 15.4618 10.6821C15.4569 10.756 15.3555 10.7618 14.0826 10.7618C13.0811 10.7618 12.6923 10.747 12.6483 10.7071Z" fill="#35518C"/>
<path fill-rule="evenodd" clip-rule="evenodd" d="M12.6214 14.0122C12.603 13.9955 12.5879 13.5073 12.5879 12.9274C12.5879 12.1079 12.6032 11.8539 12.6566 11.7877C12.7203 11.7089 12.819 11.7021 14.0029 11.695C14.7055 11.6909 15.32 11.7055 15.3685 11.7275C15.5251 11.7987 15.4771 11.9678 15.2804 12.0377C15.1835 12.0721 15.1042 12.112 15.1042 12.1262C15.1042 12.1405 15.0306 12.1807 14.9407 12.2156C14.8507 12.2505 14.6827 12.3478 14.5673 12.4318C14.452 12.5158 14.3412 12.5845 14.3211 12.5845C14.3011 12.5845 14.22 12.6458 14.1409 12.7208C14.0618 12.7957 13.997 12.844 13.997 12.8279C13.997 12.8119 13.9289 12.8634 13.8456 12.9423C13.7623 13.0212 13.6718 13.0857 13.6443 13.0857C13.6169 13.0857 13.5944 13.1028 13.5944 13.1237C13.5944 13.1446 13.4461 13.3021 13.2648 13.4737C13.0835 13.6453 12.8974 13.8435 12.8513 13.9141C12.7696 14.0394 12.6893 14.0737 12.6214 14.0122Z" fill="#35518C"/>
<path fill-rule="evenodd" clip-rule="evenodd" d="M16.846 10.6895C16.8292 10.6498 16.8154 10.1475 16.8154 9.5731V8.52881H18.2497H19.6841V9.57357C19.6841 10.4626 19.6723 10.629 19.605 10.6899C19.5371 10.7514 19.3384 10.7615 18.2012 10.7615C17.0397 10.7615 16.8728 10.7527 16.846 10.6895Z" fill="#35518C"/>
<path fill-rule="evenodd" clip-rule="evenodd" d="M17.9464 23.9816C17.929 23.9659 17.8771 23.9515 17.8309 23.9496C17.2157 23.9246 15.9882 23.5116 15.2559 23.0831C14.4971 22.6391 13.7939 22.0116 13.2576 21.2999C13.1424 21.147 12.7538 20.4719 12.6209 20.1938C12.4559 19.8485 12.2176 18.9741 12.227 18.7483C12.2304 18.6662 12.2169 18.599 12.197 18.599C12.1513 18.599 12.1561 17.3582 12.202 17.2909C12.2207 17.2635 12.2327 17.193 12.2288 17.1341C12.2248 17.0752 12.2579 16.8732 12.3024 16.6852C12.6785 15.0939 13.742 13.7092 15.281 12.8071C15.4748 12.6936 15.7352 12.5579 15.8598 12.5057C16.2362 12.3479 16.5851 12.2133 16.665 12.1952C16.7065 12.1857 16.8651 12.145 17.0173 12.1047C18.5893 11.6885 20.3935 11.8453 21.8487 12.5244C22.649 12.898 23.0107 13.143 23.663 13.7535C24.1354 14.1956 24.3665 14.47 24.6165 14.8854C24.7069 15.0358 24.7968 15.1793 24.8161 15.2043C24.9316 15.3544 25.2517 16.1291 25.3433 16.4802C25.6377 17.6083 25.595 18.7601 25.2211 19.7837C25.0556 20.2369 24.6814 21.0042 24.5878 21.0824C24.5578 21.1074 24.4559 21.2407 24.3614 21.3785C24.1376 21.705 24.0273 21.8218 23.4885 22.3025C23.1041 22.6454 22.468 23.11 22.3829 23.11C22.3684 23.11 22.2773 23.1586 22.1807 23.218C21.9594 23.354 21.0109 23.7319 20.728 23.7967C20.6109 23.8236 20.4018 23.8652 20.2634 23.8892C20.125 23.9133 19.9438 23.9451 19.8608 23.9599C19.6498 23.9977 17.985 24.0165 17.9464 23.9816ZM19.8353 23.0378C20.1526 22.9958 20.8239 22.7994 21.1477 22.6538C22.0139 22.2643 22.2754 22.096 22.8804 21.5386C23.7063 20.7775 24.1293 20.0721 24.3863 19.0268C24.5974 18.1682 24.539 17.1172 24.238 16.3558C24.1957 16.2488 24.156 16.142 24.1498 16.1186C24.1173 15.9954 23.5961 15.1113 23.4863 14.9931C23.416 14.9175 23.3585 14.84 23.3585 14.821C23.3585 14.7541 22.4691 13.9625 22.2482 13.8327C22.1253 13.7606 22.0135 13.6898 21.9997 13.6755C21.9213 13.5946 21.3143 13.3008 20.968 13.1762C20.2044 12.9015 19.7011 12.8174 18.818 12.8169C18.3612 12.8166 18.0141 12.8351 17.9967 12.8606C17.9801 12.8849 17.945 12.8927 17.9187 12.878C17.8924 12.8633 17.7873 12.8762 17.6852 12.9067C17.5831 12.9372 17.4646 12.9653 17.422 12.9691C17.3235 12.9778 16.7026 13.158 16.5808 13.2132C16.4886 13.2549 16.2545 13.3653 16.0466 13.4651C15.0381 13.9493 13.9805 15.059 13.5639 16.0701C13.383 16.5092 13.3079 16.7487 13.2635 17.027C13.1467 17.7598 13.1359 18.1186 13.2168 18.5762C13.2301 18.6514 13.2537 18.7949 13.2692 18.8952C13.2998 19.0931 13.4707 19.6597 13.544 19.8065C13.5691 19.8566 13.6363 19.9943 13.6934 20.1125C13.8276 20.3899 14.0657 20.7414 14.35 21.0816C14.5899 21.3686 14.9758 21.7431 15.0318 21.7431C15.0502 21.7431 15.1102 21.7949 15.1653 21.8582C15.2768 21.9866 15.9486 22.3944 16.3426 22.5729C16.8276 22.7926 17.5928 23.0097 18.0239 23.0498C18.1761 23.064 18.312 23.0856 18.3258 23.0978C18.3569 23.1253 19.5255 23.0788 19.8353 23.0378Z" fill="#35518C"/>
<path fill-rule="evenodd" clip-rule="evenodd" d="M16.2904 14.5739C16.1395 14.4373 16.1261 14.2938 16.2492 14.1326C16.44 13.8828 16.9157 14.026 16.9157 14.3332C16.9157 14.5343 16.8241 14.6318 16.6047 14.664C16.4505 14.6867 16.3984 14.6718 16.2904 14.5739Z" fill="#35518C"/>
<path fill-rule="evenodd" clip-rule="evenodd" d="M18.6444 14.1264C18.4689 14.048 18.4215 13.748 18.552 13.5413C18.5915 13.4787 18.6247 13.4438 18.6257 13.4639C18.6267 13.4839 18.6654 13.4811 18.7117 13.4576C18.8414 13.3919 19.0728 13.4869 19.1615 13.6423C19.3426 13.9594 18.9964 14.2835 18.6444 14.1264Z" fill="#35518C"/>
<path fill-rule="evenodd" clip-rule="evenodd" d="M20.9797 14.6328C20.9313 14.6062 20.8916 14.5997 20.8916 14.6182C20.8916 14.6368 20.8617 14.6149 20.825 14.5695C20.7796 14.5133 20.7691 14.4234 20.792 14.287C20.8328 14.0434 20.8361 14.0402 21.0762 14.0114C21.5761 13.9513 21.705 14.5789 21.2091 14.6585C21.1314 14.6709 21.0281 14.6594 20.9797 14.6328Z" fill="#35518C"/>
<path fill-rule="evenodd" clip-rule="evenodd" d="M14.6834 16.1708C14.6453 16.1521 14.6142 16.1426 14.6142 16.1498C14.6142 16.157 14.5986 16.1497 14.5796 16.1336C14.5606 16.1175 14.5505 16.0914 14.5571 16.0757C14.5638 16.06 14.5567 16.0471 14.5414 16.0471C14.5261 16.0471 14.5135 16.0317 14.5135 16.0129C14.5135 15.9941 14.5042 15.9788 14.4929 15.9788C14.4623 15.9788 14.4982 15.7713 14.5402 15.7054C14.6155 15.5871 14.6715 15.5459 14.757 15.5459C14.8196 15.5459 14.8409 15.5359 14.8414 15.506C14.8422 15.468 14.8434 15.468 14.8678 15.506C14.882 15.528 14.9239 15.5462 14.9614 15.5466C15.0417 15.5475 15.0831 15.5743 15.1751 15.6847C15.2759 15.8058 15.2708 15.9531 15.1615 16.0825C15.1011 16.154 15.0566 16.1829 14.9916 16.1927C14.8514 16.214 14.7578 16.2073 14.6834 16.1708Z" fill="#35518C"/>
<path fill-rule="evenodd" clip-rule="evenodd" d="M14.0097 18.2605L13.8965 18.1611V17.994C13.8965 17.8349 13.9005 17.8232 13.9821 17.7471C14.0587 17.6755 14.1512 17.6374 14.2614 17.632C14.3702 17.6268 14.5618 17.7292 14.5629 17.7932C14.5631 17.8074 14.5803 17.8317 14.6011 17.8473C14.642 17.878 14.6544 18.0637 14.6169 18.0847C14.6048 18.0914 14.5881 18.1282 14.5797 18.1663C14.5712 18.2044 14.5443 18.2421 14.5198 18.25C14.4953 18.2579 14.4548 18.2802 14.4299 18.2996C14.4049 18.3191 14.3256 18.3406 14.2537 18.3474C14.1262 18.3596 14.1201 18.3574 14.0097 18.2605Z" fill="#35518C"/>
<path fill-rule="evenodd" clip-rule="evenodd" d="M14.6169 20.2882C14.5117 20.1929 14.4727 20.0819 14.5012 19.9585C14.5208 19.8738 14.6792 19.7155 14.7444 19.7155C14.7692 19.7155 14.7896 19.7052 14.7896 19.6927C14.7896 19.6802 14.8179 19.6699 14.8525 19.6699C14.8871 19.6699 14.9154 19.6789 14.9154 19.6899C14.9154 19.7008 14.95 19.7161 14.9924 19.7237C15.0742 19.7386 15.1274 19.777 15.1983 19.8727C15.247 19.9384 15.2616 20.1939 15.2168 20.1939C15.2026 20.1939 15.1802 20.2196 15.1671 20.2509C15.1539 20.2822 15.1273 20.3078 15.1078 20.3078C15.0884 20.3078 15.0585 20.3232 15.0412 20.342C15.0199 20.3653 14.9628 20.3762 14.862 20.3762C14.7239 20.3762 14.7077 20.3704 14.6169 20.2882Z" fill="#35518C"/>
<path fill-rule="evenodd" clip-rule="evenodd" d="M16.3304 21.8448C16.1709 21.7115 16.1343 21.5719 16.2193 21.421C16.2968 21.2835 16.3563 21.2415 16.4952 21.2266C16.6016 21.2152 16.6386 21.2218 16.7182 21.2663C16.8829 21.3585 16.9087 21.3943 16.9225 21.5498C16.935 21.6909 16.9339 21.694 16.8364 21.7886C16.7454 21.8769 16.7248 21.8856 16.5752 21.8991C16.4193 21.9132 16.4095 21.911 16.3304 21.8448Z" fill="#35518C"/>
<path fill-rule="evenodd" clip-rule="evenodd" d="M18.7658 22.4716C18.7658 22.4593 18.7468 22.4493 18.7236 22.4493C18.6752 22.4493 18.5142 22.2992 18.5142 22.2542C18.5142 22.2377 18.5029 22.2179 18.489 22.2101C18.4752 22.2024 18.4639 22.1599 18.4639 22.1157C18.4639 22.0175 18.5902 21.8479 18.6944 21.8061C18.7337 21.7904 18.7658 21.7715 18.7658 21.7642C18.7658 21.7569 18.8224 21.7615 18.8916 21.7743C18.9608 21.7871 19.0175 21.8059 19.0175 21.8159C19.0175 21.826 19.0344 21.8342 19.0552 21.8342C19.076 21.8342 19.093 21.8505 19.093 21.8705C19.093 21.8905 19.1156 21.9122 19.1433 21.9187C19.171 21.9253 19.1936 21.9493 19.1936 21.9722C19.1936 21.9951 19.2049 22.0201 19.2188 22.0279C19.2326 22.0356 19.2439 22.0882 19.2439 22.1447C19.2439 22.2371 19.2323 22.2575 19.1275 22.3484C19.0585 22.4082 18.9875 22.4493 18.953 22.4493C18.9211 22.4493 18.8659 22.4593 18.8304 22.4716C18.7884 22.486 18.7658 22.486 18.7658 22.4716Z" fill="#35518C"/>
<path fill-rule="evenodd" clip-rule="evenodd" d="M20.98 21.8868C20.9454 21.8804 20.908 21.8608 20.897 21.8432C20.8859 21.8256 20.8632 21.8112 20.8466 21.8112C20.83 21.8112 20.8146 21.7833 20.8125 21.7492C20.8103 21.7152 20.7961 21.6835 20.781 21.679C20.7408 21.6669 20.749 21.4882 20.7921 21.4366C20.8124 21.4123 20.8293 21.3764 20.8296 21.3569C20.8299 21.3373 20.8723 21.2957 20.9239 21.2644C21 21.2182 21.0428 21.2087 21.15 21.2143C21.2706 21.2206 21.2931 21.2311 21.4061 21.3334C21.5835 21.494 21.5921 21.6317 21.4348 21.7922C21.347 21.8818 21.3327 21.8877 21.1922 21.8929C21.1101 21.896 21.0146 21.8932 20.98 21.8868Z" fill="#35518C"/>
<path fill-rule="evenodd" clip-rule="evenodd" d="M22.6907 20.3545C22.6907 20.3425 22.6512 20.326 22.6029 20.3178C22.5545 20.3096 22.521 20.294 22.5284 20.2832C22.5358 20.2724 22.523 20.2377 22.5001 20.206C22.469 20.163 22.4609 20.1119 22.4684 20.0052C22.477 19.8831 22.4898 19.8514 22.5559 19.7888C22.5984 19.7485 22.6512 19.7155 22.6731 19.7155C22.695 19.7155 22.7199 19.7053 22.7284 19.6927C22.7477 19.6646 22.892 19.6623 22.892 19.6902C22.892 19.7013 22.9316 19.7172 22.9801 19.7254C23.0285 19.7336 23.0682 19.7515 23.0682 19.7652C23.0682 19.7789 23.0974 19.8146 23.1331 19.8446C23.1886 19.8911 23.1983 19.9191 23.1999 20.0364C23.2016 20.1714 23.1995 20.1756 23.0833 20.275C22.9731 20.3693 22.9555 20.3762 22.8278 20.3762C22.7524 20.3762 22.6907 20.3664 22.6907 20.3545Z" fill="#35518C"/>
<path fill-rule="evenodd" clip-rule="evenodd" d="M23.345 18.2499C23.3101 18.2334 23.266 18.2245 23.2472 18.2302C23.2278 18.2361 23.22 18.2302 23.2292 18.2167C23.2381 18.2035 23.226 18.1751 23.2021 18.1535C23.1674 18.122 23.1598 18.0788 23.1642 17.9352C23.17 17.7444 23.1831 17.7208 23.3311 17.6338C23.4095 17.5878 23.6279 17.5773 23.6432 17.6188C23.6479 17.6317 23.6654 17.6423 23.6819 17.6423C23.7331 17.6423 23.7977 17.7296 23.8299 17.8422C23.8468 17.9014 23.8722 17.9574 23.8863 17.9666C23.9025 17.9772 23.9005 17.9835 23.8808 17.9837C23.8637 17.9839 23.8372 18.0288 23.822 18.0835C23.7999 18.163 23.7752 18.1926 23.6987 18.2316C23.5905 18.2866 23.4393 18.2945 23.345 18.2499Z" fill="#35518C"/>
<path fill-rule="evenodd" clip-rule="evenodd" d="M22.7519 16.2104C22.764 16.1927 22.7484 16.1838 22.7057 16.1838C22.6703 16.1838 22.6413 16.1735 22.6413 16.161C22.6413 16.1485 22.6268 16.1382 22.6091 16.1382C22.5584 16.1382 22.491 16.0531 22.4686 15.9608C22.4574 15.9143 22.435 15.8788 22.4189 15.8819C22.4028 15.885 22.3896 15.8725 22.3896 15.8541C22.3896 15.8353 22.4046 15.8259 22.4239 15.8326C22.4481 15.841 22.4621 15.8178 22.4717 15.7532C22.4865 15.6533 22.5895 15.5459 22.6705 15.5459C22.6963 15.5459 22.739 15.5337 22.7653 15.5188C22.8029 15.4976 22.8366 15.4987 22.922 15.5242C23.0374 15.5587 23.0803 15.5893 23.1503 15.6871C23.1971 15.7525 23.2183 15.9729 23.1801 15.9979C23.1675 16.0062 23.1449 16.033 23.1298 16.0576C23.0992 16.1078 22.9896 16.1686 22.889 16.1913C22.8522 16.1996 22.8022 16.2133 22.7779 16.2217C22.7477 16.2322 22.7394 16.2286 22.7519 16.2104Z" fill="#35518C"/>
<path d="M16.5763 14.6971C16.8073 14.6971 16.9945 14.5384 16.9945 14.3427C16.9945 14.147 16.8073 13.9883 16.5763 13.9883C16.3454 13.9883 16.1582 14.147 16.1582 14.3427C16.1582 14.5384 16.3454 14.6971 16.5763 14.6971Z" fill="#35518C"/>
<path d="M14.8683 16.2274C15.0993 16.2274 15.2865 16.0687 15.2865 15.873C15.2865 15.6772 15.0993 15.5186 14.8683 15.5186C14.6374 15.5186 14.4502 15.6772 14.4502 15.873C14.4502 16.0687 14.6374 16.2274 14.8683 16.2274Z" fill="#35518C"/>
<path d="M14.2453 18.37C14.4762 18.37 14.6634 18.2113 14.6634 18.0156C14.6634 17.8198 14.4762 17.6611 14.2453 17.6611C14.0144 17.6611 13.8271 17.8198 13.8271 18.0156C13.8271 18.2113 14.0144 18.37 14.2453 18.37Z" fill="#35518C"/>
<path d="M14.8859 20.3841C15.1168 20.3841 15.3041 20.2255 15.3041 20.0297C15.3041 19.834 15.1168 19.6753 14.8859 19.6753C14.655 19.6753 14.4678 19.834 14.4678 20.0297C14.4678 20.2255 14.655 20.3841 14.8859 20.3841Z" fill="#35518C"/>
<path d="M16.5763 21.9466C16.8073 21.9466 16.9945 21.788 16.9945 21.5922C16.9945 21.3965 16.8073 21.2378 16.5763 21.2378C16.3454 21.2378 16.1582 21.3965 16.1582 21.5922C16.1582 21.788 16.3454 21.9466 16.5763 21.9466Z" fill="#35518C"/>
<path d="M18.8361 22.4784C19.067 22.4784 19.2543 22.3197 19.2543 22.124C19.2543 21.9282 19.067 21.7695 18.8361 21.7695C18.6052 21.7695 18.418 21.9282 18.418 22.124C18.418 22.3197 18.6052 22.4784 18.8361 22.4784Z" fill="#35518C"/>
<path d="M21.1496 21.8983C21.3805 21.8983 21.5677 21.7396 21.5677 21.5439C21.5677 21.3481 21.3805 21.1895 21.1496 21.1895C20.9187 21.1895 20.7314 21.3481 20.7314 21.5439C20.7314 21.7396 20.9187 21.8983 21.1496 21.8983Z" fill="#35518C"/>
<path d="M22.8752 20.3841C23.1061 20.3841 23.2933 20.2255 23.2933 20.0297C23.2933 19.834 23.1061 19.6753 22.8752 19.6753C22.6442 19.6753 22.457 19.834 22.457 20.0297C22.457 20.2255 22.6442 20.3841 22.8752 20.3841Z" fill="#35518C"/>
<path d="M23.5334 18.2899C23.7643 18.2899 23.9515 18.1312 23.9515 17.9355C23.9515 17.7397 23.7643 17.5811 23.5334 17.5811C23.3024 17.5811 23.1152 17.7397 23.1152 17.9355C23.1152 18.1312 23.3024 18.2899 23.5334 18.2899Z" fill="#35518C"/>
<path d="M22.8224 16.1952C23.0534 16.1952 23.2406 16.0365 23.2406 15.8407C23.2406 15.645 23.0534 15.4863 22.8224 15.4863C22.5915 15.4863 22.4043 15.645 22.4043 15.8407C22.4043 16.0365 22.5915 16.1952 22.8224 16.1952Z" fill="#35518C"/>
<path d="M21.132 14.681C21.3629 14.681 21.5502 14.5223 21.5502 14.3266C21.5502 14.1308 21.3629 13.9722 21.132 13.9722C20.9011 13.9722 20.7139 14.1308 20.7139 14.3266C20.7139 14.5223 20.9011 14.681 21.132 14.681Z" fill="#35518C"/>
<path d="M18.8361 14.117C19.067 14.117 19.2543 13.9584 19.2543 13.7626C19.2543 13.5669 19.067 13.4082 18.8361 13.4082C18.6052 13.4082 18.418 13.5669 18.418 13.7626C18.418 13.9584 18.6052 14.117 18.8361 14.117Z" fill="#35518C"/>
<path d="M19.3081 15.8299C19.3081 15.4977 19.1009 15.2285 18.8454 15.2285C18.5899 15.2285 18.3828 15.4977 18.3828 15.8299V18.3647C18.3828 18.6968 18.5899 18.966 18.8454 18.966C19.1009 18.966 19.3081 18.6968 19.3081 18.3647V15.8299Z" fill="#35518C"/>
<path d="M21.2024 18.8695C21.6105 18.8695 21.9414 18.6819 21.9414 18.4506C21.9414 18.2193 21.6105 18.0317 21.2024 18.0317H19.193C18.7848 18.0317 18.4539 18.2193 18.4539 18.4506C18.4539 18.6819 18.7848 18.8695 19.193 18.8695H21.2024Z" fill="#35518C"/>
<path d="M18.3911 18.8211C18.8579 18.8211 19.2363 18.6516 19.2363 18.4426C19.2363 18.2335 18.8579 18.064 18.3911 18.064C17.9243 18.064 17.5459 18.2335 17.5459 18.4426C17.5459 18.6516 17.9243 18.8211 18.3911 18.8211Z" fill="#35518C"/>
<path d="M19.2541 18.2397C19.2541 17.8312 19.051 17.5 18.8004 17.5C18.5498 17.5 18.3467 17.8312 18.3467 18.2397V18.9996C18.3467 19.4081 18.5498 19.7393 18.8004 19.7393C19.051 19.7393 19.2541 19.4081 19.2541 18.9996V18.2397Z" fill="#35518C"/>
</svg>
