<svg width="26" height="25" viewBox="0 0 26 25" fill="none" xmlns="http://www.w3.org/2000/svg">
<path fill-rule="evenodd" clip-rule="evenodd" d="M1.36522 20.1808C0.859842 20.1033 0.415302 19.8105 0.144168 19.3765L0.0348149 19.2015L0.00965159 10.8971C-0.00418832 6.32963 -0.0030004 2.59265 0.0122915 2.59266C0.0275834 2.59266 0.08036 2.49128 0.129573 2.36737C0.178786 2.24346 0.251201 2.11792 0.290495 2.08839C0.32979 2.05887 0.36194 2.01672 0.36194 1.99472C0.36194 1.94109 0.550949 1.77247 0.611073 1.77247C0.637378 1.77247 0.67701 1.74572 0.699146 1.71303C0.721281 1.68034 0.86395 1.60345 1.01619 1.54216C1.28281 1.43482 1.34062 1.43021 2.58891 1.41654L3.88482 1.40234L3.88687 1.66715C3.88799 1.81279 3.88862 2.40356 3.88827 2.97997C3.8876 4.06831 3.90657 4.19565 4.11578 4.50704C4.27201 4.73958 4.67178 5.06882 4.74687 5.0268C4.77098 5.01331 4.79071 5.0215 4.79071 5.045C4.79071 5.15376 5.13567 5.2127 5.77208 5.2127C6.39466 5.2127 6.43851 5.20654 6.67796 5.08543C7.07354 4.88534 7.37276 4.53716 7.41925 4.22283C7.42926 4.15515 7.4534 4.08534 7.4729 4.06768C7.4924 4.05003 7.50836 3.44436 7.50836 2.72176V1.40794H8.5149H9.52143V2.73757C9.52143 4.00587 9.52649 4.07733 9.63106 4.28681C9.69135 4.4076 9.75929 4.50643 9.78204 4.50643C9.80478 4.50643 9.82339 4.53599 9.82339 4.57212C9.82339 4.64277 10.2901 4.98519 10.5783 5.12601C10.7241 5.19723 10.863 5.21213 11.3835 5.21239C12.0779 5.21274 12.1682 5.18677 12.5781 4.86898C13.0678 4.48938 13.1408 4.19658 13.1432 2.60405L13.145 1.40794H14.3006H15.4562L15.4594 2.69518C15.4629 4.07416 15.4742 4.21468 15.6016 4.46086C15.7063 4.66305 16.0677 4.98333 16.3356 5.11136C16.5193 5.19911 16.6224 5.21012 17.2718 5.21134C17.8796 5.21247 18.0436 5.19779 18.2531 5.12347C18.5705 5.01095 18.8319 4.87426 18.8319 4.82089C18.8319 4.79831 18.8666 4.77983 18.909 4.77983C18.9514 4.77983 19.0012 4.74394 19.0197 4.70009C19.0382 4.65623 19.0941 4.5806 19.1439 4.53201C19.1937 4.48343 19.2374 4.41679 19.2408 4.38392C19.2443 4.35106 19.2528 4.30366 19.2597 4.2786C19.2666 4.25354 19.2751 3.59739 19.2786 2.82049L19.2848 1.40794H20.3076C21.1217 1.40794 21.3809 1.42321 21.5783 1.48275C21.7148 1.52389 21.8547 1.57767 21.8893 1.60225C21.9239 1.62682 21.9522 1.63288 21.9522 1.61571C21.9522 1.54146 22.4142 2.04178 22.5177 2.22813L22.6316 2.43318L22.6439 7.51378C22.6507 10.3081 22.6393 12.5729 22.6187 12.5466C22.5669 12.4806 22.2639 12.2919 22.1894 12.2794C22.1558 12.2737 21.9723 12.2038 21.7816 12.1242C21.591 12.0445 21.4143 11.9792 21.3889 11.9792C21.3615 11.9792 21.3468 10.9429 21.3526 9.41616L21.3624 6.85308L11.4283 6.84062C5.96462 6.83377 1.44334 6.83928 1.38106 6.85288L1.26782 6.8776V12.9115C1.26782 17.6825 1.28096 18.9528 1.3306 18.9806C1.36512 18.9999 3.52603 19.0165 6.13262 19.0175C8.73921 19.0184 10.8889 19.0346 10.9096 19.0534C10.9304 19.0722 10.9531 19.1337 10.96 19.1901C10.9669 19.2465 10.9757 19.2926 10.9796 19.2926C10.9835 19.2926 10.9963 19.3761 11.0081 19.4782C11.0198 19.5803 11.0638 19.7521 11.1058 19.8599C11.1478 19.9677 11.1822 20.0943 11.1822 20.1413C11.1822 20.2242 11.0436 20.2265 6.38858 20.2213C3.75208 20.2184 1.49157 20.2001 1.36522 20.1808Z" fill="#5863C8"/>
<path fill-rule="evenodd" clip-rule="evenodd" d="M5.24875 4.55692C5.04004 4.52361 4.90832 4.42747 4.63982 4.11251C4.58323 4.04612 4.57997 0.633657 4.6365 0.633657C4.65949 0.633657 4.70511 0.57505 4.73788 0.503419C4.8487 0.261191 5.04976 0.173623 5.57497 0.138851C5.83587 0.121578 6.04933 0.12332 6.04933 0.142722C6.04933 0.162123 6.08588 0.177997 6.13055 0.177997C6.17522 0.177997 6.29876 0.222263 6.40508 0.276366C6.74352 0.448584 6.75391 0.509293 6.75391 2.31482C6.75391 3.18833 6.73946 3.9684 6.72181 4.04832C6.70416 4.12824 6.60706 4.27388 6.50604 4.37197C6.32535 4.54741 6.31542 4.55065 5.89647 4.57132C5.66222 4.58288 5.37075 4.5764 5.24875 4.55692Z" fill="#5863C8"/>
<path fill-rule="evenodd" clip-rule="evenodd" d="M10.6036 4.47526C10.2494 4.25735 10.2517 4.27038 10.2441 2.36499L10.2373 0.656267L10.3572 0.486625C10.4231 0.393321 10.5508 0.282065 10.6408 0.23939C10.8449 0.142633 11.533 0.103558 11.8157 0.172674C12.0272 0.224393 12.2388 0.357891 12.2388 0.439594C12.2388 0.464913 12.2738 0.511928 12.3166 0.544073C12.3594 0.576218 12.3827 0.629991 12.3685 0.663568C12.3543 0.697144 12.3589 0.7246 12.3788 0.72458C12.3987 0.72456 12.4036 1.49 12.3898 2.42555L12.3646 4.12656L12.2213 4.29662C12.0269 4.5272 11.8967 4.56641 11.2951 4.57547C10.8274 4.58251 10.7627 4.57313 10.6036 4.47526Z" fill="#5863C8"/>
<path fill-rule="evenodd" clip-rule="evenodd" d="M16.9401 4.56122C16.7765 4.55027 16.6934 4.50982 16.5375 4.36525L16.341 4.18309V2.38878C16.341 0.3421 16.3195 0.44542 16.7915 0.222857C17.0139 0.118013 17.0698 0.110887 17.469 0.136445C18.0613 0.174368 18.2315 0.265746 18.3769 0.623722C18.454 0.813741 18.4629 1.01859 18.4543 2.41038C18.4479 3.45101 18.4255 4.02476 18.388 4.10771C18.3569 4.17663 18.3443 4.23301 18.3601 4.23301C18.4597 4.23301 17.9412 4.55318 17.8334 4.5582C17.521 4.57275 17.132 4.57406 16.9401 4.56122Z" fill="#5863C8"/>
<path fill-rule="evenodd" clip-rule="evenodd" d="M3.34258 9.78076L3.35605 8.67578H4.76521H6.17436L6.18858 9.67823C6.1964 10.2296 6.19031 10.7268 6.17504 10.7832L6.14728 10.8857H4.73819H3.3291L3.34258 9.78076Z" fill="#5863C8"/>
<path fill-rule="evenodd" clip-rule="evenodd" d="M3.36539 14.0002C3.3465 13.9831 3.33105 13.4907 3.33105 12.9059C3.33105 11.9256 3.33792 11.8424 3.41913 11.8379C3.46757 11.8352 4.09169 11.8295 4.80606 11.8251C5.738 11.8193 6.11858 11.8319 6.15326 11.8698C6.18197 11.9011 6.19611 12.346 6.18807 12.9648L6.17452 14.0071L4.78712 14.0192C4.02405 14.0259 3.38427 14.0173 3.36539 14.0002Z" fill="#5863C8"/>
<path fill-rule="evenodd" clip-rule="evenodd" d="M3.38911 17.4058C3.34536 17.3813 3.33315 17.0891 3.34309 16.3049L3.35662 15.2373H4.76577H6.17493L6.18846 16.3049C6.19837 17.0866 6.18611 17.3813 6.14269 17.4056C6.06509 17.4491 3.46669 17.4492 3.38911 17.4058Z" fill="#5863C8"/>
<path fill-rule="evenodd" clip-rule="evenodd" d="M7.9005 17.4128C7.85336 17.4034 7.80465 17.3611 7.79227 17.3189C7.77275 17.2523 7.78107 15.6001 7.80235 15.3169L7.81006 15.2144H9.21383C10.4475 15.2144 10.6213 15.2231 10.6481 15.2864C10.6649 15.3261 10.6787 15.8072 10.6787 16.3556C10.6787 17.2636 10.6707 17.3566 10.5895 17.396C10.5063 17.4363 8.09314 17.4514 7.9005 17.4128Z" fill="#5863C8"/>
<path fill-rule="evenodd" clip-rule="evenodd" d="M7.7921 13.9046C7.75094 13.7076 7.78048 11.9001 7.82553 11.8593C7.8841 11.8063 10.5398 11.8031 10.616 11.8559C10.7041 11.9169 10.7064 13.8956 10.6185 13.9752C10.5745 14.0151 10.1866 14.0299 9.1882 14.0299H7.81828L7.7921 13.9046Z" fill="#5863C8"/>
<path fill-rule="evenodd" clip-rule="evenodd" d="M7.88296 10.6216C7.78238 10.6086 7.77961 10.5817 7.77839 9.60589C7.77733 8.76191 7.78834 8.60746 7.84807 8.62821C7.88709 8.64177 8.50598 8.65286 9.22339 8.65286H10.5278V9.64983V10.6468L9.25702 10.6409C8.55811 10.6376 7.93978 10.629 7.88296 10.6216Z" fill="#5863C8"/>
<path fill-rule="evenodd" clip-rule="evenodd" d="M12.1483 10.8312C12.1049 10.7919 12.0879 10.486 12.0879 9.74247C12.0879 8.8416 12.0981 8.70488 12.1675 8.68078C12.3072 8.63224 14.8976 8.64923 14.9315 8.69891C14.9567 8.73574 14.9821 10.5024 14.9618 10.8061C14.9569 10.88 14.8555 10.8859 13.5826 10.8859C12.5811 10.8859 12.1923 10.871 12.1483 10.8312Z" fill="#5863C8"/>
<path fill-rule="evenodd" clip-rule="evenodd" d="M12.1214 14.1363C12.103 14.1195 12.0879 13.6314 12.0879 13.0514C12.0879 12.2319 12.1032 11.9779 12.1566 11.9118C12.2203 11.8329 12.319 11.8261 13.5029 11.8191C14.2055 11.8149 14.82 11.8295 14.8685 11.8515C15.0251 11.9227 14.9771 12.0918 14.7804 12.1617C14.6835 12.1961 14.6042 12.236 14.6042 12.2502C14.6042 12.2645 14.5306 12.3047 14.4407 12.3396C14.3507 12.3745 14.1827 12.4718 14.0673 12.5558C13.952 12.6398 13.8412 12.7085 13.8211 12.7085C13.8011 12.7085 13.72 12.7698 13.6409 12.8448C13.5618 12.9198 13.497 12.968 13.497 12.952C13.497 12.9359 13.4289 12.9874 13.3456 13.0663C13.2623 13.1452 13.1718 13.2097 13.1443 13.2097C13.1169 13.2097 13.0944 13.2268 13.0944 13.2477C13.0944 13.2686 12.9461 13.4261 12.7648 13.5977C12.5835 13.7693 12.3974 13.9675 12.3513 14.0382C12.2696 14.1634 12.1893 14.1977 12.1214 14.1363Z" fill="#5863C8"/>
<path fill-rule="evenodd" clip-rule="evenodd" d="M16.346 10.8135C16.3292 10.7738 16.3154 10.2715 16.3154 9.69712V8.65283H17.7497H19.1841V9.6976C19.1841 10.5866 19.1723 10.753 19.105 10.814C19.0371 10.8754 18.8384 10.8856 17.7012 10.8856C16.5397 10.8856 16.3728 10.8767 16.346 10.8135Z" fill="#5863C8"/>
<path fill-rule="evenodd" clip-rule="evenodd" d="M17.4464 24.1056C17.429 24.0899 17.3771 24.0755 17.3309 24.0736C16.7157 24.0486 15.4882 23.6356 14.7559 23.2071C13.9971 22.7631 13.2939 22.1356 12.7576 21.424C12.6424 21.271 12.2538 20.596 12.1209 20.3178C11.9559 19.9726 11.7176 19.0981 11.727 18.8723C11.7304 18.7902 11.7169 18.723 11.697 18.723C11.6513 18.723 11.6561 17.4822 11.702 17.4149C11.7207 17.3876 11.7327 17.317 11.7288 17.2581C11.7248 17.1992 11.7579 16.9972 11.8024 16.8093C12.1785 15.2179 13.242 13.8332 14.781 12.9312C14.9748 12.8176 15.2352 12.6819 15.3598 12.6297C15.7362 12.4719 16.0851 12.3373 16.165 12.3192C16.2065 12.3097 16.3651 12.269 16.5173 12.2287C18.0893 11.8126 19.8935 11.9693 21.3487 12.6485C22.149 13.022 22.5107 13.267 23.163 13.8776C23.6354 14.3196 23.8665 14.5941 24.1165 15.0094C24.2069 15.1598 24.2968 15.3033 24.3161 15.3284C24.4316 15.4784 24.7517 16.2531 24.8433 16.6042C25.1377 17.7323 25.095 18.8841 24.7211 19.9078C24.5556 20.3609 24.1814 21.1282 24.0878 21.2064C24.0578 21.2314 23.9559 21.3647 23.8614 21.5026C23.6376 21.829 23.5273 21.9458 22.9885 22.4265C22.6041 22.7694 21.968 23.2341 21.8829 23.2341C21.8684 23.2341 21.7773 23.2827 21.6807 23.3421C21.4594 23.478 20.5109 23.8559 20.228 23.9207C20.1109 23.9476 19.9018 23.9892 19.7634 24.0133C19.625 24.0373 19.4438 24.0691 19.3608 24.0839C19.1498 24.1217 17.485 24.1405 17.4464 24.1056ZM19.3353 23.1618C19.6526 23.1198 20.3239 22.9234 20.6477 22.7778C21.5139 22.3883 21.7754 22.22 22.3804 21.6626C23.2063 20.9016 23.6293 20.1961 23.8863 19.1508C24.0974 18.2922 24.039 17.2413 23.738 16.4799C23.6957 16.3728 23.656 16.2661 23.6498 16.2426C23.6173 16.1194 23.0961 15.2353 22.9863 15.1172C22.916 15.0415 22.8585 14.964 22.8585 14.945C22.8585 14.8781 21.9691 14.0865 21.7482 13.9567C21.6253 13.8846 21.5135 13.8138 21.4997 13.7996C21.4213 13.7186 20.8143 13.4249 20.468 13.3003C19.7044 13.0256 19.2011 12.9414 18.318 12.9409C17.8612 12.9407 17.5141 12.9591 17.4967 12.9846C17.4801 13.0089 17.445 13.0167 17.4187 13.002C17.3924 12.9873 17.2873 13.0002 17.1852 13.0307C17.0831 13.0612 16.9646 13.0893 16.922 13.0931C16.8235 13.1019 16.2026 13.282 16.0808 13.3372C15.9886 13.3789 15.7545 13.4894 15.5466 13.5892C14.5381 14.0733 13.4805 15.183 13.0639 16.1942C12.883 16.6333 12.8079 16.8727 12.7635 17.151C12.6467 17.8839 12.6359 18.2426 12.7168 18.7003C12.7301 18.7754 12.7537 18.919 12.7692 19.0192C12.7998 19.2171 12.9707 19.7837 13.044 19.9305C13.0691 19.9807 13.1363 20.1183 13.1934 20.2365C13.3276 20.5139 13.5657 20.8654 13.85 21.2056C14.0899 21.4927 14.4758 21.8671 14.5318 21.8671C14.5502 21.8671 14.6102 21.9189 14.6653 21.9822C14.7768 22.1107 15.4486 22.5184 15.8426 22.6969C16.3276 22.9166 17.0928 23.1337 17.5239 23.1738C17.6761 23.188 17.812 23.2096 17.8258 23.2219C17.8569 23.2493 19.0255 23.2028 19.3353 23.1618Z" fill="#5863C8"/>
<path fill-rule="evenodd" clip-rule="evenodd" d="M15.7904 14.6979C15.6395 14.5613 15.6261 14.4179 15.7492 14.2566C15.94 14.0068 16.4157 14.15 16.4157 14.4572C16.4157 14.6583 16.3241 14.7558 16.1047 14.788C15.9505 14.8107 15.8984 14.7958 15.7904 14.6979Z" fill="#5863C8"/>
<path fill-rule="evenodd" clip-rule="evenodd" d="M18.1444 14.2504C17.9689 14.172 17.9215 13.872 18.052 13.6654C18.0915 13.6027 18.1247 13.5679 18.1257 13.5879C18.1267 13.6079 18.1654 13.6051 18.2117 13.5816C18.3414 13.5159 18.5728 13.611 18.6615 13.7664C18.8426 14.0834 18.4964 14.4075 18.1444 14.2504Z" fill="#5863C8"/>
<path fill-rule="evenodd" clip-rule="evenodd" d="M20.4797 14.7568C20.4313 14.7303 20.3916 14.7237 20.3916 14.7423C20.3916 14.7608 20.3617 14.7389 20.325 14.6936C20.2796 14.6373 20.2691 14.5474 20.292 14.411C20.3328 14.1674 20.3361 14.1643 20.5762 14.1354C21.0761 14.0753 21.205 14.703 20.7091 14.7825C20.6314 14.795 20.5281 14.7834 20.4797 14.7568Z" fill="#5863C8"/>
<path fill-rule="evenodd" clip-rule="evenodd" d="M14.1834 16.2948C14.1453 16.2761 14.1142 16.2667 14.1142 16.2738C14.1142 16.281 14.0986 16.2737 14.0796 16.2576C14.0606 16.2415 14.0505 16.2155 14.0571 16.1997C14.0638 16.184 14.0567 16.1711 14.0414 16.1711C14.0261 16.1711 14.0135 16.1558 14.0135 16.137C14.0135 16.1182 14.0042 16.1028 13.9929 16.1028C13.9623 16.1028 13.9982 15.8953 14.0402 15.8294C14.1155 15.7111 14.1715 15.6699 14.257 15.6699C14.3196 15.6699 14.3409 15.6599 14.3414 15.63C14.3422 15.5921 14.3434 15.5921 14.3678 15.63C14.382 15.652 14.4239 15.6702 14.4614 15.6706C14.5417 15.6715 14.5831 15.6983 14.6751 15.8088C14.7759 15.9298 14.7708 16.0771 14.6615 16.2066C14.6011 16.278 14.5566 16.3069 14.4916 16.3168C14.3514 16.338 14.2578 16.3313 14.1834 16.2948Z" fill="#5863C8"/>
<path fill-rule="evenodd" clip-rule="evenodd" d="M13.5097 18.3845L13.3965 18.2851V18.1181C13.3965 17.959 13.4005 17.9472 13.4821 17.8711C13.5587 17.7995 13.6512 17.7614 13.7614 17.7561C13.8702 17.7508 14.0618 17.8532 14.0629 17.9172C14.0631 17.9314 14.0803 17.9557 14.1011 17.9713C14.142 18.0021 14.1544 18.1877 14.1169 18.2087C14.1048 18.2154 14.0881 18.2522 14.0797 18.2903C14.0712 18.3285 14.0443 18.3661 14.0198 18.374C13.9953 18.3819 13.9548 18.4042 13.9299 18.4237C13.9049 18.4431 13.8256 18.4646 13.7537 18.4715C13.6262 18.4836 13.6201 18.4814 13.5097 18.3845Z" fill="#5863C8"/>
<path fill-rule="evenodd" clip-rule="evenodd" d="M14.1169 20.4122C14.0117 20.3169 13.9727 20.2059 14.0012 20.0825C14.0208 19.9978 14.1792 19.8395 14.2444 19.8395C14.2692 19.8395 14.2896 19.8293 14.2896 19.8167C14.2896 19.8042 14.3179 19.7939 14.3525 19.7939C14.3871 19.7939 14.4154 19.8029 14.4154 19.8139C14.4154 19.8248 14.45 19.8401 14.4924 19.8478C14.5742 19.8626 14.6274 19.9011 14.6983 19.9968C14.747 20.0624 14.7616 20.318 14.7168 20.318C14.7026 20.318 14.6802 20.3436 14.6671 20.3749C14.6539 20.4062 14.6273 20.4319 14.6078 20.4319C14.5884 20.4319 14.5585 20.4472 14.5412 20.466C14.5199 20.4893 14.4628 20.5002 14.362 20.5002C14.2239 20.5002 14.2077 20.4944 14.1169 20.4122Z" fill="#5863C8"/>
<path fill-rule="evenodd" clip-rule="evenodd" d="M15.8304 21.9688C15.6709 21.8355 15.6343 21.696 15.7193 21.5451C15.7968 21.4075 15.8563 21.3655 15.9952 21.3506C16.1016 21.3392 16.1386 21.3458 16.2182 21.3903C16.3829 21.4825 16.4087 21.5183 16.4225 21.6738C16.435 21.8149 16.4339 21.818 16.3364 21.9126C16.2454 22.0009 16.2248 22.0096 16.0752 22.0231C15.9193 22.0372 15.9095 22.035 15.8304 21.9688Z" fill="#5863C8"/>
<path fill-rule="evenodd" clip-rule="evenodd" d="M18.2658 22.5956C18.2658 22.5834 18.2468 22.5734 18.2236 22.5734C18.1752 22.5734 18.0142 22.4233 18.0142 22.3782C18.0142 22.3617 18.0029 22.3419 17.989 22.3341C17.9752 22.3264 17.9639 22.2839 17.9639 22.2397C17.9639 22.1415 18.0902 21.9719 18.1944 21.9302C18.2337 21.9144 18.2658 21.8956 18.2658 21.8883C18.2658 21.881 18.3224 21.8855 18.3916 21.8983C18.4608 21.9112 18.5175 21.9299 18.5175 21.9399C18.5175 21.95 18.5344 21.9582 18.5552 21.9582C18.576 21.9582 18.593 21.9746 18.593 21.9945C18.593 22.0145 18.6156 22.0362 18.6433 22.0427C18.671 22.0493 18.6936 22.0734 18.6936 22.0962C18.6936 22.1191 18.7049 22.1441 18.7188 22.1519C18.7326 22.1596 18.7439 22.2122 18.7439 22.2687C18.7439 22.3611 18.7323 22.3816 18.6275 22.4724C18.5585 22.5323 18.4875 22.5734 18.453 22.5734C18.4211 22.5734 18.3659 22.5834 18.3304 22.5956C18.2884 22.61 18.2658 22.61 18.2658 22.5956Z" fill="#5863C8"/>
<path fill-rule="evenodd" clip-rule="evenodd" d="M20.48 22.0108C20.4454 22.0044 20.408 21.9848 20.397 21.9672C20.3859 21.9496 20.3632 21.9352 20.3466 21.9352C20.33 21.9352 20.3146 21.9073 20.3125 21.8732C20.3103 21.8392 20.2961 21.8076 20.281 21.803C20.2408 21.7909 20.249 21.6122 20.2921 21.5606C20.3124 21.5363 20.3293 21.5004 20.3296 21.4809C20.3299 21.4614 20.3723 21.4197 20.4239 21.3884C20.5 21.3422 20.5428 21.3328 20.65 21.3384C20.7706 21.3446 20.7931 21.3551 20.9061 21.4574C21.0835 21.618 21.0921 21.7557 20.9348 21.9162C20.847 22.0058 20.8327 22.0118 20.6922 22.017C20.6101 22.02 20.5146 22.0172 20.48 22.0108Z" fill="#5863C8"/>
<path fill-rule="evenodd" clip-rule="evenodd" d="M22.1907 20.4785C22.1907 20.4665 22.1512 20.45 22.1029 20.4418C22.0545 20.4336 22.021 20.4181 22.0284 20.4073C22.0358 20.3965 22.023 20.3617 22.0001 20.33C21.969 20.287 21.9609 20.236 21.9684 20.1292C21.977 20.0071 21.9898 19.9754 22.0559 19.9128C22.0984 19.8725 22.1512 19.8395 22.1731 19.8395C22.195 19.8395 22.2199 19.8293 22.2284 19.8168C22.2477 19.7886 22.392 19.7863 22.392 19.8142C22.392 19.8254 22.4316 19.8412 22.4801 19.8494C22.5285 19.8577 22.5682 19.8756 22.5682 19.8892C22.5682 19.9029 22.5974 19.9386 22.6331 19.9686C22.6886 20.0151 22.6983 20.0432 22.6999 20.1605C22.7016 20.2954 22.6995 20.2997 22.5833 20.3991C22.4731 20.4933 22.4555 20.5003 22.3278 20.5003C22.2524 20.5003 22.1907 20.4905 22.1907 20.4785Z" fill="#5863C8"/>
<path fill-rule="evenodd" clip-rule="evenodd" d="M22.845 18.3739C22.8101 18.3574 22.766 18.3486 22.7472 18.3543C22.7278 18.3601 22.72 18.3542 22.7292 18.3407C22.7381 18.3276 22.726 18.2991 22.7021 18.2775C22.6674 18.2461 22.6598 18.2028 22.6642 18.0592C22.67 17.8684 22.6831 17.8448 22.8311 17.7578C22.9095 17.7118 23.1279 17.7013 23.1432 17.7428C23.1479 17.7558 23.1654 17.7663 23.1819 17.7663C23.2331 17.7663 23.2977 17.8536 23.3299 17.9662C23.3468 18.0255 23.3722 18.0814 23.3863 18.0907C23.4025 18.1013 23.4005 18.1075 23.3808 18.1077C23.3637 18.1079 23.3372 18.1528 23.322 18.2075C23.2999 18.287 23.2752 18.3167 23.1987 18.3556C23.0905 18.4107 22.9393 18.4185 22.845 18.3739Z" fill="#5863C8"/>
<path fill-rule="evenodd" clip-rule="evenodd" d="M22.2519 16.3345C22.264 16.3168 22.2484 16.3078 22.2057 16.3078C22.1703 16.3078 22.1413 16.2976 22.1413 16.285C22.1413 16.2725 22.1268 16.2622 22.1091 16.2622C22.0584 16.2622 21.991 16.1771 21.9686 16.0848C21.9574 16.0383 21.935 16.0028 21.9189 16.0059C21.9028 16.0091 21.8896 15.9966 21.8896 15.9782C21.8896 15.9593 21.9046 15.9499 21.9239 15.9566C21.9481 15.965 21.9621 15.9418 21.9717 15.8772C21.9865 15.7773 22.0895 15.6699 22.1705 15.6699C22.1963 15.6699 22.239 15.6577 22.2653 15.6428C22.3029 15.6216 22.3366 15.6228 22.422 15.6483C22.5374 15.6827 22.5803 15.7133 22.6503 15.8111C22.6971 15.8765 22.7183 16.0969 22.6801 16.1219C22.6675 16.1302 22.6449 16.157 22.6298 16.1816C22.5992 16.2318 22.4896 16.2926 22.389 16.3153C22.3522 16.3236 22.3022 16.3373 22.2779 16.3458C22.2477 16.3562 22.2394 16.3527 22.2519 16.3345Z" fill="#5863C8"/>
<path d="M16.0763 14.8211C16.3073 14.8211 16.4945 14.6625 16.4945 14.4667C16.4945 14.271 16.3073 14.1123 16.0763 14.1123C15.8454 14.1123 15.6582 14.271 15.6582 14.4667C15.6582 14.6625 15.8454 14.8211 16.0763 14.8211Z" fill="#5863C8"/>
<path d="M14.3683 16.3514C14.5993 16.3514 14.7865 16.1927 14.7865 15.997C14.7865 15.8013 14.5993 15.6426 14.3683 15.6426C14.1374 15.6426 13.9502 15.8013 13.9502 15.997C13.9502 16.1927 14.1374 16.3514 14.3683 16.3514Z" fill="#5863C8"/>
<path d="M13.7453 18.494C13.9762 18.494 14.1634 18.3353 14.1634 18.1396C14.1634 17.9438 13.9762 17.7852 13.7453 17.7852C13.5144 17.7852 13.3271 17.9438 13.3271 18.1396C13.3271 18.3353 13.5144 18.494 13.7453 18.494Z" fill="#5863C8"/>
<path d="M14.3859 20.5082C14.6168 20.5082 14.8041 20.3495 14.8041 20.1537C14.8041 19.958 14.6168 19.7993 14.3859 19.7993C14.155 19.7993 13.9678 19.958 13.9678 20.1537C13.9678 20.3495 14.155 20.5082 14.3859 20.5082Z" fill="#5863C8"/>
<path d="M16.0763 22.0707C16.3073 22.0707 16.4945 21.912 16.4945 21.7162C16.4945 21.5205 16.3073 21.3618 16.0763 21.3618C15.8454 21.3618 15.6582 21.5205 15.6582 21.7162C15.6582 21.912 15.8454 22.0707 16.0763 22.0707Z" fill="#5863C8"/>
<path d="M18.3361 22.6024C18.567 22.6024 18.7543 22.4437 18.7543 22.248C18.7543 22.0522 18.567 21.8936 18.3361 21.8936C18.1052 21.8936 17.918 22.0522 17.918 22.248C17.918 22.4437 18.1052 22.6024 18.3361 22.6024Z" fill="#5863C8"/>
<path d="M20.6496 22.0223C20.8805 22.0223 21.0677 21.8636 21.0677 21.6679C21.0677 21.4722 20.8805 21.3135 20.6496 21.3135C20.4187 21.3135 20.2314 21.4722 20.2314 21.6679C20.2314 21.8636 20.4187 22.0223 20.6496 22.0223Z" fill="#5863C8"/>
<path d="M22.3752 20.5082C22.6061 20.5082 22.7933 20.3495 22.7933 20.1537C22.7933 19.958 22.6061 19.7993 22.3752 19.7993C22.1442 19.7993 21.957 19.958 21.957 20.1537C21.957 20.3495 22.1442 20.5082 22.3752 20.5082Z" fill="#5863C8"/>
<path d="M23.0334 18.4139C23.2643 18.4139 23.4515 18.2552 23.4515 18.0595C23.4515 17.8638 23.2643 17.7051 23.0334 17.7051C22.8024 17.7051 22.6152 17.8638 22.6152 18.0595C22.6152 18.2552 22.8024 18.4139 23.0334 18.4139Z" fill="#5863C8"/>
<path d="M22.3224 16.3192C22.5534 16.3192 22.7406 16.1605 22.7406 15.9648C22.7406 15.769 22.5534 15.6104 22.3224 15.6104C22.0915 15.6104 21.9043 15.769 21.9043 15.9648C21.9043 16.1605 22.0915 16.3192 22.3224 16.3192Z" fill="#5863C8"/>
<path d="M20.632 14.805C20.8629 14.805 21.0502 14.6464 21.0502 14.4506C21.0502 14.2549 20.8629 14.0962 20.632 14.0962C20.4011 14.0962 20.2139 14.2549 20.2139 14.4506C20.2139 14.6464 20.4011 14.805 20.632 14.805Z" fill="#5863C8"/>
<path d="M18.3361 14.2411C18.567 14.2411 18.7543 14.0824 18.7543 13.8866C18.7543 13.6909 18.567 13.5322 18.3361 13.5322C18.1052 13.5322 17.918 13.6909 17.918 13.8866C17.918 14.0824 18.1052 14.2411 18.3361 14.2411Z" fill="#5863C8"/>
<path d="M18.8081 15.9539C18.8081 15.6218 18.6009 15.3525 18.3454 15.3525C18.0899 15.3525 17.8828 15.6218 17.8828 15.9539V18.4887C17.8828 18.8208 18.0899 19.0901 18.3454 19.0901C18.6009 19.0901 18.8081 18.8208 18.8081 18.4887V15.9539Z" fill="#5863C8"/>
<path d="M20.7024 18.9935C21.1105 18.9935 21.4414 18.806 21.4414 18.5746C21.4414 18.3433 21.1105 18.1558 20.7024 18.1558H18.693C18.2848 18.1558 17.9539 18.3433 17.9539 18.5746C17.9539 18.806 18.2848 18.9935 18.693 18.9935H20.7024Z" fill="#5863C8"/>
<path d="M17.8911 18.9452C18.3579 18.9452 18.7363 18.7757 18.7363 18.5666C18.7363 18.3575 18.3579 18.188 17.8911 18.188C17.4243 18.188 17.0459 18.3575 17.0459 18.5666C17.0459 18.7757 17.4243 18.9452 17.8911 18.9452Z" fill="#5863C8"/>
<path d="M18.7541 18.3637C18.7541 17.9552 18.551 17.624 18.3004 17.624C18.0498 17.624 17.8467 17.9552 17.8467 18.3637V19.1236C17.8467 19.5321 18.0498 19.8633 18.3004 19.8633C18.551 19.8633 18.7541 19.5321 18.7541 19.1236V18.3637Z" fill="#5863C8"/>
</svg>
