<svg width="26" height="25" viewBox="0 0 26 25" fill="none" xmlns="http://www.w3.org/2000/svg">
<g clip-path="url(#clip0_115_1282)">
<path d="M18.749 20.3924L13.8303 17.6678C15.6584 16.2295 16.1549 13.4029 16.1549 11.8181V8.51931C16.1549 6.33494 13.2526 3.90212 10.3373 3.90212C7.42288 3.90212 4.44358 6.33533 4.44358 8.51931V11.8181C4.44358 13.2592 5.05332 16.1744 6.90022 17.6553L1.85449 20.3924C1.85449 20.3924 0.536133 20.9799 0.536133 21.7123V23.692C0.536133 24.4205 1.12751 25.0119 1.85449 25.0119H18.749C19.4767 25.0119 20.0681 24.4205 20.0681 23.692V21.7123C20.0681 20.9358 18.749 20.3924 18.749 20.3924ZM18.5057 23.4494H2.09868V22.0526C2.21079 21.971 2.36743 21.8764 2.49087 21.8198C2.52756 21.803 2.56428 21.7854 2.59905 21.7655L7.64514 19.0288C8.1053 18.7791 8.41038 18.3163 8.45686 17.7952C8.50335 17.2741 8.28577 16.7635 7.87795 16.4362C6.5678 15.3858 6.00647 13.0592 6.00647 11.8182V8.51938C6.00647 7.39712 8.1221 5.4647 10.3377 5.4647C12.5944 5.4647 14.5928 7.37058 14.5928 8.51938V11.8182C14.5928 13.042 14.2127 15.3788 12.8647 16.4393C12.6615 16.5993 12.5011 16.8072 12.3979 17.0443C12.2947 17.2815 12.2519 17.5405 12.2733 17.7983C12.295 18.0559 12.3803 18.3041 12.5214 18.5207C12.6625 18.7374 12.855 18.9157 13.0819 19.0397L18.0006 21.7643C18.044 21.7881 18.0991 21.8139 18.1448 21.8339C18.26 21.8827 18.4018 21.9643 18.5057 22.0362V23.4494ZM24.217 16.5022L19.2252 13.7776C21.0533 12.3393 21.6233 9.51272 21.6233 7.92793V4.6291C21.6233 2.44473 18.6479 -0.0126953 15.7326 -0.0126953C13.8381 -0.0126953 11.901 1.01738 10.7737 2.33655C11.4167 2.37637 12.1256 2.37717 12.7381 2.57249C13.5612 1.93147 14.6026 1.55022 15.7327 1.55022C17.9893 1.55022 20.0607 3.48027 20.0607 4.62952V7.92834C20.0607 9.15215 19.6076 11.4889 18.2596 12.5494C18.0564 12.7094 17.896 12.9173 17.7928 13.1545C17.6896 13.3916 17.6468 13.6507 17.6682 13.9084C17.6899 14.166 17.7752 14.4142 17.9163 14.6309C18.0574 14.8475 18.25 15.0258 18.4768 15.1498L23.4686 17.8744C23.512 17.8983 23.567 17.924 23.6127 17.944C23.728 17.9928 23.8697 18.0744 23.9737 18.1463V19.5358H20.8198C21.2959 19.8951 21.4401 20.4092 21.6249 21.0983H24.2174C24.9451 21.0983 25.5365 20.5069 25.5365 19.7783V17.8229C25.5362 17.0455 24.217 16.5022 24.217 16.5022Z" fill="#35518C"/>
</g>
<defs>
<clipPath id="clip0_115_1282">
<rect width="25" height="25" fill="white" transform="translate(0.536133)"/>
</clipPath>
</defs>
</svg>
