<svg width="26" height="26" viewBox="0 0 26 26" fill="none" xmlns="http://www.w3.org/2000/svg">
<g clip-path="url(#clip0_246_1519)">
<path d="M18.249 20.0291L13.3303 17.3045C15.1584 15.8662 15.6549 13.0396 15.6549 11.4549V8.15603C15.6549 5.97165 12.7526 3.53884 9.83733 3.53884C6.92288 3.53884 3.94358 5.97205 3.94358 8.15603V11.4549C3.94358 12.8959 4.55332 15.8111 6.40022 17.292L1.35449 20.0291C1.35449 20.0291 0.0361328 20.6166 0.0361328 21.349V23.3287C0.0361328 24.0572 0.627515 24.6486 1.35449 24.6486H18.249C18.9767 24.6486 19.5681 24.0572 19.5681 23.3287V21.349C19.5681 20.5725 18.249 20.0291 18.249 20.0291ZM18.0057 23.0862H1.59868V21.6893C1.71079 21.6077 1.86743 21.5131 1.99087 21.4565C2.02756 21.4397 2.06428 21.4221 2.09905 21.4022L7.14514 18.6655C7.6053 18.4159 7.91038 17.953 7.95686 17.4319C8.00335 16.9108 7.78577 16.4002 7.37795 16.0729C6.0678 15.0225 5.50647 12.6959 5.50647 11.4549V8.1561C5.50647 7.03384 7.6221 5.10142 9.83772 5.10142C12.0944 5.10142 14.0928 7.0073 14.0928 8.1561V11.4549C14.0928 12.6788 13.7127 15.0155 12.3647 16.076C12.1615 16.236 12.0011 16.4439 11.8979 16.6811C11.7947 16.9182 11.7519 17.1773 11.7733 17.435C11.795 17.6926 11.8803 17.9408 12.0214 18.1575C12.1625 18.3741 12.355 18.5524 12.5819 18.6764L17.5006 21.401C17.544 21.4249 17.5991 21.4506 17.6448 21.4706C17.76 21.5194 17.9018 21.601 18.0057 21.6729V23.0862ZM23.717 16.1389L18.7252 13.4143C20.5533 11.976 21.1233 9.14944 21.1233 7.56465V4.26582C21.1233 2.08145 18.1479 -0.375977 15.2326 -0.375977C13.3381 -0.375977 11.401 0.654101 10.2737 1.97327C10.9167 2.01309 11.6256 2.01389 12.2381 2.2092C13.0612 1.56819 14.1026 1.18694 15.2327 1.18694C17.4893 1.18694 19.5607 3.11699 19.5607 4.26623V7.56506C19.5607 8.78887 19.1076 11.1256 17.7596 12.1862C17.5564 12.3462 17.396 12.554 17.2928 12.7912C17.1896 13.0283 17.1468 13.2874 17.1682 13.5451C17.1899 13.8027 17.2752 14.051 17.4163 14.2676C17.5574 14.4842 17.75 14.6625 17.9768 14.7865L22.9686 17.5112C23.012 17.535 23.067 17.5608 23.1127 17.5807C23.228 17.6295 23.3697 17.7112 23.4737 17.783V19.1725H20.3198C20.7959 19.5319 20.9401 20.0459 21.1249 20.735H23.7174C24.4451 20.735 25.0365 20.1436 25.0365 19.4151V17.4596C25.0362 16.6822 23.717 16.1389 23.717 16.1389Z" fill="#5863C8"/>
</g>
<defs>
<clipPath id="clip0_246_1519">
<rect width="25" height="25" fill="white" transform="translate(0.0361328 0.124023)"/>
</clipPath>
</defs>
</svg>
