<svg width="21" height="21" viewBox="0 0 21 21" fill="none" xmlns="http://www.w3.org/2000/svg">
<g clip-path="url(#clip0_246_1216)">
<path d="M4.18522 16.062H3.51855V16.7287H4.18522V16.062Z" fill="#333333"/>
<path d="M5.51823 16.062H4.85156V16.7287H5.51823V16.062Z" fill="#333333"/>
<path d="M4.18522 14.7285H3.51855V15.3952H4.18522V14.7285Z" fill="#333333"/>
<path d="M5.51823 14.7285H4.85156V15.3952H5.51823V14.7285Z" fill="#333333"/>
<path d="M4.18522 13.3955H3.51855V14.0622H4.18522V13.3955Z" fill="#333333"/>
<path d="M5.51823 13.3955H4.85156V14.0622H5.51823V13.3955Z" fill="#333333"/>
<path d="M4.18522 12.062H3.51855V12.7287H4.18522V12.062Z" fill="#333333"/>
<path d="M5.51823 12.062H4.85156V12.7287H5.51823V12.062Z" fill="#333333"/>
<path d="M4.18522 10.7285H3.51855V11.3952H4.18522V10.7285Z" fill="#333333"/>
<path d="M5.51823 10.7285H4.85156V11.3952H5.51823V10.7285Z" fill="#333333"/>
<path d="M4.18522 9.39551H3.51855V10.0622H4.18522V9.39551Z" fill="#333333"/>
<path d="M5.51823 9.39551H4.85156V10.0622H5.51823V9.39551Z" fill="#333333"/>
<path d="M4.18522 8.06201H3.51855V8.72868H4.18522V8.06201Z" fill="#333333"/>
<path d="M5.51823 8.06201H4.85156V8.72868H5.51823V8.06201Z" fill="#333333"/>
<path d="M4.18522 6.72852H3.51855V7.39518H4.18522V6.72852Z" fill="#333333"/>
<path d="M5.51823 6.72852H4.85156V7.39518H5.51823V6.72852Z" fill="#333333"/>
<path d="M4.18522 5.39551H3.51855V6.06217H4.18522V5.39551Z" fill="#333333"/>
<path d="M5.51823 5.39551H4.85156V6.06217H5.51823V5.39551Z" fill="#333333"/>
<path d="M16.1852 16.062H15.5186V16.7287H16.1852V16.062Z" fill="#333333"/>
<path d="M17.5182 16.062H16.8516V16.7287H17.5182V16.062Z" fill="#333333"/>
<path d="M16.1852 14.7285H15.5186V15.3952H16.1852V14.7285Z" fill="#333333"/>
<path d="M17.5182 14.7285H16.8516V15.3952H17.5182V14.7285Z" fill="#333333"/>
<path d="M16.1852 13.3955H15.5186V14.0622H16.1852V13.3955Z" fill="#333333"/>
<path d="M17.5182 13.3955H16.8516V14.0622H17.5182V13.3955Z" fill="#333333"/>
<path d="M16.1852 12.062H15.5186V12.7287H16.1852V12.062Z" fill="#333333"/>
<path d="M10.8522 13.7285H10.1855V14.3952H10.8522V13.7285Z" fill="#333333"/>
<path d="M9.51823 13.7285H8.85156V14.3952H9.51823V13.7285Z" fill="#333333"/>
<path d="M12.1852 13.7285H11.5186V14.3952H12.1852V13.7285Z" fill="#333333"/>
<path d="M10.8522 12.3955H10.1855V13.0622H10.8522V12.3955Z" fill="#333333"/>
<path d="M9.51823 12.3955H8.85156V13.0622H9.51823V12.3955Z" fill="#333333"/>
<path d="M12.1852 12.3955H11.5186V13.0622H12.1852V12.3955Z" fill="#333333"/>
<path d="M10.8522 11.062H10.1855V11.7287H10.8522V11.062Z" fill="#333333"/>
<path d="M9.51823 11.062H8.85156V11.7287H9.51823V11.062Z" fill="#333333"/>
<path d="M12.1852 11.062H11.5186V11.7287H12.1852V11.062Z" fill="#333333"/>
<path d="M10.8522 5.39551H10.1855V6.06217H10.8522V5.39551Z" fill="#333333"/>
<path d="M9.51823 5.39551H8.85156V6.06217H9.51823V5.39551Z" fill="#333333"/>
<path d="M12.1852 5.39551H11.5186V6.06217H12.1852V5.39551Z" fill="#333333"/>
<path d="M10.8522 4.06201H10.1855V4.72868H10.8522V4.06201Z" fill="#333333"/>
<path d="M9.51823 4.06201H8.85156V4.72868H9.51823V4.06201Z" fill="#333333"/>
<path d="M12.1852 4.06201H11.5186V4.72868H12.1852V4.06201Z" fill="#333333"/>
<path d="M10.8522 2.72852H10.1855V3.39518H10.8522V2.72852Z" fill="#333333"/>
<path d="M9.51823 2.72852H8.85156V3.39518H9.51823V2.72852Z" fill="#333333"/>
<path d="M12.1852 2.72852H11.5186V3.39518H12.1852V2.72852Z" fill="#333333"/>
<path d="M17.5182 12.062H16.8516V12.7287H17.5182V12.062Z" fill="#333333"/>
<path d="M16.1852 10.7285H15.5186V11.3952H16.1852V10.7285Z" fill="#333333"/>
<path d="M17.5182 10.7285H16.8516V11.3952H17.5182V10.7285Z" fill="#333333"/>
<path d="M16.1852 9.39551H15.5186V10.0622H16.1852V9.39551Z" fill="#333333"/>
<path d="M17.5182 9.39551H16.8516V10.0622H17.5182V9.39551Z" fill="#333333"/>
<path d="M16.1852 8.06201H15.5186V8.72868H16.1852V8.06201Z" fill="#333333"/>
<path d="M17.5182 8.06201H16.8516V8.72868H17.5182V8.06201Z" fill="#333333"/>
<path d="M16.1852 6.72852H15.5186V7.39518H16.1852V6.72852Z" fill="#333333"/>
<path d="M17.5182 6.72852H16.8516V7.39518H17.5182V6.72852Z" fill="#333333"/>
<path d="M16.1852 5.39551H15.5186V6.06217H16.1852V5.39551Z" fill="#333333"/>
<path d="M17.5182 5.39551H16.8516V6.06217H17.5182V5.39551Z" fill="#333333"/>
<path d="M20.1852 18.062H19.8519V17.3C20.2472 17.0803 20.5186 16.481 20.5186 15.7287C20.5186 14.7783 20.0886 14.062 19.5186 14.062C19.2409 14.0783 18.9902 14.2334 18.8519 14.4747V4.39535C18.8519 4.21126 18.7026 4.06201 18.5186 4.06201H14.5186V2.06201H15.5186C15.7026 2.06201 15.8519 1.91276 15.8519 1.72868V0.395345C15.8519 0.211262 15.7026 0.0620117 15.5186 0.0620117H5.51855C5.33447 0.0620117 5.18522 0.211262 5.18522 0.395345V1.72868C5.18522 1.91276 5.33447 2.06201 5.51855 2.06201H6.51855V4.06201H2.51855C2.33447 4.06201 2.18522 4.21126 2.18522 4.39535V14.4747C2.04689 14.2334 1.79618 14.0783 1.51855 14.062C0.948555 14.062 0.518555 14.7783 0.518555 15.7287C0.518555 16.481 0.789888 17.0803 1.18522 17.3V18.062H0.851888C0.667805 18.062 0.518555 18.2113 0.518555 18.3953V19.7287C0.518555 19.9128 0.667805 20.062 0.851888 20.062H20.1852C20.3693 20.062 20.5186 19.9128 20.5186 19.7287V18.3953C20.5186 18.2113 20.3693 18.062 20.1852 18.062ZM19.5186 14.7287C19.6016 14.7287 19.8519 15.0833 19.8519 15.7287C19.8519 16.374 19.6016 16.7287 19.5186 16.7287C19.4356 16.7287 19.1852 16.374 19.1852 15.7287C19.1852 15.0833 19.4356 14.7287 19.5186 14.7287ZM18.8519 16.9827C18.9368 17.1129 19.0509 17.2216 19.1852 17.3V18.062H18.8519V16.9827ZM18.1852 4.72868V18.062H14.8519V7.06201C14.8519 6.87793 14.7026 6.72868 14.5186 6.72868V4.72868H18.1852ZM5.85189 1.39535V0.728678H15.1852V1.39535H5.85189ZM6.85189 9.39535V7.39535H14.1852V9.39535H6.85189ZM14.1852 10.062V18.062H13.5186V10.062H14.1852ZM11.5186 15.062H9.51855C9.33447 15.062 9.18522 15.2113 9.18522 15.3953V18.062H8.18522V10.062H12.8519V18.062H11.8519V15.3953C11.8519 15.2113 11.7026 15.062 11.5186 15.062ZM11.1852 15.7287V18.062H9.85189V15.7287H11.1852ZM7.51855 10.062V18.062H6.85189V10.062H7.51855ZM7.18522 6.72868V2.06201H13.8519V6.72868H7.18522ZM2.85189 4.72868H6.51855V6.72868C6.33447 6.72868 6.18522 6.87793 6.18522 7.06201V18.062H2.85189V4.72868ZM2.18522 16.9827V18.062H1.85189V17.3C1.98618 17.2216 2.1003 17.1129 2.18522 16.9827ZM1.51855 14.7287C1.60155 14.7287 1.85189 15.0833 1.85189 15.7287C1.85189 16.374 1.60155 16.7287 1.51855 16.7287C1.43555 16.7287 1.18522 16.374 1.18522 15.7287C1.18522 15.0833 1.43555 14.7287 1.51855 14.7287ZM19.8519 19.3953H1.18522V18.7287H19.8519V19.3953Z" fill="#333333"/>
<path d="M8.18522 8.06201H7.51855V8.72868H8.18522V8.06201Z" fill="#333333"/>
<path d="M13.5182 8.06201H12.8516V8.72868H13.5182V8.06201Z" fill="#333333"/>
</g>
<defs>
<clipPath id="clip0_246_1216">
<rect width="20" height="20" fill="white" transform="translate(0.518555 0.0620117)"/>
</clipPath>
</defs>
</svg>
